<svg width="32" height="32" viewBox="0 0 32 32" fill="none" xmlns="http://www.w3.org/2000/svg">
<g clip-path="url(#clip0_274_8063)">
<path d="M7.51881 17.4204C7.61476 17.4199 7.61476 17.4199 7.71265 17.4194C7.9236 17.4186 8.13453 17.4186 8.34548 17.4188C8.49243 17.4185 8.63938 17.4182 8.78633 17.4179C9.09415 17.4175 9.40197 17.4175 9.70979 17.4178C10.1039 17.4182 10.498 17.4171 10.8921 17.4157C11.1956 17.4148 11.499 17.4147 11.8024 17.4149C11.9477 17.4149 12.093 17.4145 12.2383 17.4139C12.4416 17.4131 12.6449 17.4136 12.8482 17.4143C12.9079 17.4138 12.9677 17.4133 13.0293 17.4128C13.5665 17.4171 13.9228 17.5655 14.3125 17.9376C14.507 18.2125 14.57 18.4451 14.5713 18.7783C14.5717 18.8336 14.572 18.889 14.5724 18.946C14.5725 19.0364 14.5725 19.0364 14.5726 19.1287C14.5729 19.1925 14.5732 19.2564 14.5735 19.3221C14.5744 19.5335 14.5749 19.7448 14.5752 19.9561C14.5756 20.1031 14.5759 20.2501 14.5763 20.3971C14.577 20.7054 14.5773 21.0137 14.5775 21.322C14.5779 21.7165 14.5794 22.111 14.5812 22.5056C14.5823 22.8093 14.5827 23.113 14.5827 23.4166C14.5829 23.5621 14.5834 23.7075 14.5843 23.8529C14.5853 24.0567 14.5852 24.2604 14.5848 24.4641C14.5854 24.5239 14.586 24.5836 14.5865 24.6452C14.5839 25.0636 14.5357 25.4321 14.2583 25.7652C14.2169 25.7989 14.1755 25.8325 14.1328 25.8672C14.0917 25.9019 14.0507 25.9365 14.0083 25.9722C13.6541 26.2122 13.3303 26.2061 12.9154 26.2057C12.8503 26.2061 12.7852 26.2066 12.7181 26.207C12.5031 26.2082 12.2881 26.2084 12.073 26.2086C11.9233 26.209 11.7736 26.2094 11.6239 26.2098C11.3101 26.2106 10.9963 26.2108 10.6825 26.2107C10.2809 26.2107 9.87929 26.2124 9.47767 26.2146C9.16845 26.216 8.85924 26.2162 8.55002 26.2161C8.40198 26.2163 8.25394 26.2168 8.10591 26.2178C7.89857 26.219 7.69129 26.2187 7.48396 26.2179C7.42313 26.2186 7.3623 26.2193 7.29963 26.2201C6.85791 26.216 6.52414 26.1202 6.18606 25.8284C6.15818 25.7935 6.13031 25.7587 6.10159 25.7227C6.07274 25.688 6.0439 25.6533 6.01418 25.6175C5.78631 25.2684 5.79399 24.945 5.79436 24.5404C5.79395 24.4753 5.79353 24.4102 5.79309 24.3432C5.79191 24.1281 5.79166 23.9131 5.79153 23.6981C5.79113 23.5484 5.7907 23.3987 5.79027 23.249C5.78952 22.9352 5.78929 22.6214 5.78936 22.3075C5.78937 21.9059 5.78767 21.5043 5.78551 21.1027C5.78412 20.7935 5.78387 20.4843 5.78394 20.1751C5.78379 20.027 5.78324 19.879 5.78227 19.7309C5.78104 19.5236 5.78141 19.3163 5.78216 19.109C5.78146 19.0482 5.78075 18.9873 5.78003 18.9247C5.78409 18.4826 5.88136 18.1518 6.16946 17.8111C6.20378 17.7832 6.2381 17.7553 6.27346 17.7266C6.30746 17.6978 6.34146 17.6689 6.37649 17.6392C6.7401 17.4136 7.10539 17.4193 7.51881 17.4204ZM8.75002 20.3751C8.75002 21.3238 8.75002 22.2726 8.75002 23.2501C9.69877 23.2501 10.6475 23.2501 11.625 23.2501C11.625 22.3013 11.625 21.3526 11.625 20.3751C10.6763 20.3751 9.72752 20.3751 8.75002 20.3751Z" fill="#0F61D8"/>
<path d="M7.45969 5.79436C7.52477 5.79395 7.58985 5.79353 7.6569 5.79309C7.87195 5.79191 8.08698 5.79166 8.30202 5.79153C8.45172 5.79113 8.60141 5.7907 8.7511 5.79027C9.06492 5.78952 9.37873 5.78929 9.69254 5.78936C10.0942 5.78937 10.4958 5.78767 10.8974 5.78551C11.2066 5.78412 11.5158 5.78387 11.825 5.78394C11.9731 5.78379 12.1211 5.78324 12.2691 5.78227C12.4765 5.78104 12.6838 5.78141 12.8911 5.78216C12.9519 5.78146 13.0127 5.78075 13.0754 5.78003C13.5175 5.78409 13.8483 5.88136 14.189 6.16946C14.2169 6.20378 14.2447 6.2381 14.2735 6.27346C14.3167 6.32446 14.3167 6.32446 14.3609 6.37649C14.5865 6.7401 14.5808 7.10539 14.5797 7.51881C14.58 7.58278 14.5803 7.64675 14.5807 7.71265C14.5815 7.9236 14.5815 8.13453 14.5813 8.34548C14.5816 8.49243 14.5818 8.63938 14.5821 8.78633C14.5826 9.09415 14.5826 9.40197 14.5823 9.70979C14.5819 10.1039 14.5829 10.498 14.5844 10.8921C14.5853 11.1956 14.5854 11.499 14.5852 11.8024C14.5852 11.9477 14.5855 12.093 14.5862 12.2383C14.5869 12.4416 14.5865 12.6449 14.5858 12.8482C14.5863 12.9079 14.5867 12.9677 14.5872 13.0293C14.5835 13.5021 14.4861 13.8647 14.1598 14.2287C13.7758 14.5597 13.3217 14.5988 12.8359 14.5939C12.772 14.5942 12.7082 14.5946 12.6423 14.5949C12.4327 14.5957 12.2231 14.5947 12.0134 14.5935C11.8669 14.5935 11.7204 14.5936 11.5739 14.5938C11.2674 14.5939 10.961 14.5931 10.6545 14.5917C10.2625 14.5899 9.87041 14.5901 9.47832 14.5909C9.17597 14.5913 8.87362 14.5908 8.57126 14.59C8.42672 14.5898 8.28217 14.5897 8.13762 14.59C7.9354 14.5902 7.73323 14.5891 7.53101 14.5878C7.47175 14.5881 7.41248 14.5883 7.35142 14.5886C6.93509 14.584 6.56616 14.5342 6.23489 14.2583C6.20121 14.2169 6.16753 14.1755 6.13284 14.1328C6.09819 14.0917 6.06355 14.0507 6.02785 14.0083C5.78784 13.6541 5.79398 13.3303 5.79436 12.9154C5.79395 12.8503 5.79353 12.7852 5.79309 12.7181C5.79191 12.5031 5.79166 12.2881 5.79153 12.073C5.79113 11.9233 5.7907 11.7736 5.79027 11.6239C5.78952 11.3101 5.78929 10.9963 5.78936 10.6825C5.78937 10.2809 5.78767 9.87929 5.78551 9.47767C5.78412 9.16845 5.78387 8.85924 5.78394 8.55002C5.78379 8.40198 5.78324 8.25394 5.78227 8.10591C5.78104 7.89857 5.78141 7.69129 5.78216 7.48396C5.78146 7.42313 5.78075 7.3623 5.78003 7.29963C5.78409 6.85791 5.87991 6.52414 6.17165 6.18606C6.20654 6.15818 6.24142 6.13031 6.27737 6.10159C6.31209 6.07274 6.34681 6.0439 6.38259 6.01418C6.73165 5.78631 7.05513 5.79399 7.45969 5.79436ZM8.75002 8.75002C8.75002 9.69877 8.75002 10.6475 8.75002 11.625C9.69877 11.625 10.6475 11.625 11.625 11.625C11.625 10.6763 11.625 9.72752 11.625 8.75002C10.6763 8.75002 9.72752 8.75002 8.75002 8.75002Z" fill="#1061D8"/>
<path d="M19.0847 5.79436C19.1497 5.79395 19.2148 5.79353 19.2819 5.79309C19.4969 5.79191 19.712 5.79166 19.927 5.79153C20.0767 5.79113 20.2264 5.7907 20.3761 5.79027C20.6899 5.78952 21.0037 5.78929 21.3175 5.78936C21.7191 5.78937 22.1207 5.78767 22.5224 5.78551C22.8316 5.78412 23.1408 5.78387 23.45 5.78394C23.598 5.78379 23.7461 5.78324 23.8941 5.78227C24.1014 5.78104 24.3087 5.78141 24.5161 5.78216C24.5769 5.78146 24.6377 5.78075 24.7004 5.78003C25.1421 5.78409 25.4759 5.87991 25.814 6.17165C25.8558 6.22398 25.8558 6.22398 25.8984 6.27737C25.9417 6.32945 25.9417 6.32945 25.9858 6.38259C26.2137 6.73165 26.206 7.05513 26.2057 7.45969C26.2061 7.52477 26.2065 7.58985 26.2069 7.6569C26.2081 7.87195 26.2084 8.08698 26.2085 8.30202C26.2089 8.45172 26.2093 8.60141 26.2098 8.7511C26.2105 9.06492 26.2107 9.37873 26.2107 9.69254C26.2106 10.0942 26.2124 10.4958 26.2145 10.8974C26.2159 11.2066 26.2162 11.5158 26.2161 11.825C26.2162 11.9731 26.2168 12.1211 26.2177 12.2691C26.219 12.4765 26.2186 12.6838 26.2179 12.8911C26.2186 12.9519 26.2193 13.0127 26.22 13.0754C26.2159 13.5175 26.1187 13.8483 25.8306 14.189C25.7791 14.2308 25.7791 14.2308 25.7266 14.2735C25.6926 14.3023 25.6586 14.3311 25.6235 14.3609C25.2608 14.586 24.8957 14.5811 24.4832 14.5807C24.4194 14.5811 24.3557 14.5815 24.29 14.582C24.0796 14.5831 23.8693 14.5834 23.6589 14.5835C23.5123 14.5839 23.3656 14.5843 23.219 14.5848C22.9117 14.5855 22.6044 14.5858 22.2971 14.5857C21.9041 14.5857 21.5111 14.5874 21.1181 14.5895C20.8153 14.5909 20.5124 14.5912 20.2095 14.5911C20.0646 14.5913 19.9198 14.5918 19.7749 14.5928C19.572 14.594 19.369 14.5936 19.1661 14.5929C19.1067 14.5936 19.0474 14.5943 18.9862 14.595C18.5483 14.5909 18.1517 14.508 17.8196 14.205C17.4434 13.8038 17.419 13.3846 17.4203 12.8572C17.42 12.7934 17.4197 12.7295 17.4194 12.6637C17.4185 12.453 17.4186 12.2424 17.4187 12.0318C17.4185 11.885 17.4182 11.7382 17.4179 11.5914C17.4174 11.2838 17.4174 10.9763 17.4178 10.6687C17.4181 10.2751 17.4171 9.88159 17.4156 9.48804C17.4147 9.18488 17.4146 8.88172 17.4148 8.57857C17.4148 8.43349 17.4145 8.28842 17.4139 8.14335C17.4131 7.94022 17.4135 7.73712 17.4142 7.53399C17.4138 7.47443 17.4133 7.41487 17.4128 7.3535C17.4161 6.93588 17.4649 6.56729 17.7417 6.23489C17.7831 6.20121 17.8245 6.16753 17.8672 6.13284C17.9083 6.09819 17.9494 6.06355 17.9917 6.02785C18.3459 5.78784 18.6697 5.79398 19.0847 5.79436ZM20.375 8.75002C20.375 9.69877 20.375 10.6475 20.375 11.625C21.3237 11.625 22.2725 11.625 23.25 11.625C23.25 10.6763 23.25 9.72752 23.25 8.75002C22.3012 8.75002 21.3525 8.75002 20.375 8.75002Z" fill="#1061D7"/>
<path d="M2.39037 20.5923C2.72429 20.8607 2.90428 21.154 2.95482 21.5855C2.96157 21.7516 2.96263 21.9168 2.96153 22.083C2.96187 22.1457 2.9622 22.2084 2.96255 22.2729C2.96316 22.4082 2.96335 22.5436 2.96315 22.6789C2.96287 22.8933 2.96375 23.1077 2.96493 23.3221C2.96761 23.8545 2.9683 24.3868 2.96907 24.9192C2.96979 25.3696 2.97126 25.82 2.97373 26.2704C2.97458 26.4811 2.97432 26.6919 2.97402 26.9027C2.97461 27.0324 2.97524 27.1622 2.97594 27.292C2.97555 27.3502 2.97517 27.4084 2.97477 27.4684C2.97891 27.9095 3.04248 28.2658 3.33592 28.6133C3.65707 28.8809 3.91839 29.0075 4.33553 29.0082C4.41686 29.0086 4.41686 29.0086 4.49984 29.009C4.55884 29.009 4.61783 29.0089 4.67862 29.0089C4.74115 29.0091 4.80368 29.0093 4.86811 29.0095C5.0039 29.01 5.1397 29.0103 5.2755 29.0106C5.4907 29.011 5.70588 29.012 5.92108 29.0131C6.53295 29.0164 7.14481 29.0194 7.75668 29.0204C8.13102 29.021 8.50534 29.0229 8.87967 29.0255C9.02207 29.0262 9.16447 29.0266 9.30688 29.0264C9.50658 29.0263 9.70622 29.0277 9.90591 29.0294C9.96428 29.029 10.0226 29.0286 10.0828 29.0281C10.5166 29.0343 10.9062 29.1218 11.2408 29.4135C11.5453 29.728 11.6642 30.0992 11.7109 30.5274C11.6601 31.0101 11.5476 31.4139 11.1875 31.75C10.8023 32.0126 10.4465 32.036 9.99055 32.0324C9.92239 32.0328 9.85423 32.0332 9.784 32.0337C9.55959 32.0348 9.33523 32.0341 9.11082 32.0332C8.95389 32.0334 8.79696 32.0336 8.64002 32.0339C8.31124 32.0343 7.98248 32.0338 7.6537 32.0326C7.31751 32.0314 6.98135 32.0314 6.64516 32.0326C6.23771 32.0341 5.83028 32.0343 5.42283 32.0335C5.2683 32.0333 5.11377 32.0335 4.95924 32.0341C3.41579 32.0387 3.41579 32.0387 2.68748 31.75C2.64292 31.7335 2.59836 31.717 2.55245 31.7C1.48047 31.2739 0.691261 30.359 0.236416 29.3187C0.0384299 28.7879 -0.027777 28.2692 -0.0252686 27.7063C-0.0256975 27.6375 -0.0261265 27.5687 -0.0265684 27.4978C-0.0277017 27.2729 -0.0274716 27.0481 -0.0271149 26.8233C-0.0274003 26.6658 -0.027732 26.5083 -0.0281076 26.3508C-0.0286641 26.022 -0.028531 25.6931 -0.0278931 25.3643C-0.0271739 24.9852 -0.0280588 24.6062 -0.0297303 24.2272C-0.0312856 23.8606 -0.0314384 23.4941 -0.0310357 23.1276C-0.0310261 22.9724 -0.0314029 22.8172 -0.0321786 22.662C-0.0331106 22.4451 -0.0324433 22.2283 -0.0313721 22.0114C-0.0319763 21.9478 -0.0325806 21.8841 -0.0332031 21.8186C-0.0285677 21.3694 0.0570396 21.0225 0.366196 20.6861C0.988278 20.2413 1.73264 20.1599 2.39037 20.5923Z" fill="#0F62D8"/>
<path d="M4.29376 -0.0252686C4.36256 -0.0256975 4.43136 -0.0261265 4.50225 -0.0265684C4.72709 -0.0277017 4.95191 -0.0274716 5.17676 -0.0271149C5.33423 -0.0274003 5.49171 -0.027732 5.64918 -0.0281076C5.97804 -0.0286641 6.30689 -0.028531 6.63574 -0.0278931C7.01478 -0.0271739 7.39379 -0.0280589 7.77283 -0.0297303C8.13938 -0.0312856 8.50591 -0.0314383 8.87247 -0.0310355C9.02766 -0.031026 9.18285 -0.031403 9.33804 -0.0321788C9.55491 -0.0331107 9.77172 -0.0324433 9.98858 -0.0313721C10.0522 -0.0319763 10.1159 -0.0325806 10.1815 -0.0332031C10.6306 -0.0285677 10.9775 0.0570396 11.314 0.366196C11.6109 0.781541 11.7331 1.16787 11.6875 1.68748C11.602 2.11666 11.411 2.47736 11.0625 2.74998C10.6692 2.92835 10.3457 2.96436 9.91699 2.96153C9.85432 2.96187 9.79165 2.9622 9.72709 2.96255C9.59177 2.96316 9.45646 2.96335 9.32114 2.96315C9.10672 2.96287 8.89233 2.96375 8.67792 2.96493C8.14556 2.96761 7.6132 2.9683 7.08084 2.96907C6.63044 2.96979 6.18005 2.97126 5.72965 2.97373C5.51888 2.97458 5.30812 2.97432 5.09735 2.97402C4.96757 2.97461 4.83779 2.97524 4.70801 2.97594C4.64981 2.97555 4.59161 2.97517 4.53165 2.97477C4.09047 2.97891 3.73421 3.04248 3.38672 3.33592C3.11909 3.65707 2.99249 3.91839 2.99179 4.33553C2.99154 4.38975 2.99129 4.44397 2.99103 4.49984C2.99108 4.58834 2.99108 4.58834 2.99113 4.67862C2.99092 4.74115 2.9907 4.80368 2.99048 4.86811C2.99002 5.0039 2.98968 5.1397 2.98946 5.2755C2.98901 5.4907 2.98803 5.70588 2.98687 5.92108C2.9836 6.53295 2.9806 7.14481 2.97963 7.75668C2.979 8.13102 2.97716 8.50534 2.97455 8.87967C2.97378 9.02207 2.97346 9.16447 2.9736 9.30688C2.97374 9.50658 2.97235 9.70622 2.97063 9.90591C2.97124 9.99346 2.97124 9.99346 2.97188 10.0828C2.96574 10.5166 2.87819 10.9062 2.58655 11.2408C2.27201 11.5453 1.90082 11.6642 1.47265 11.7109C0.989879 11.6601 0.586077 11.5476 0.249998 11.1875C-0.0133415 10.8017 -0.0356942 10.4453 -0.0313583 9.98857C-0.0318649 9.88603 -0.0318649 9.88603 -0.0323816 9.78141C-0.0331605 9.5564 -0.0321321 9.33144 -0.0310074 9.10643C-0.0310171 8.9492 -0.0311102 8.79196 -0.031283 8.63473C-0.0313694 8.30543 -0.0306132 7.97614 -0.0291611 7.64684C-0.0275016 7.26795 -0.0273879 6.88909 -0.028123 6.51021C-0.0288008 6.14379 -0.0283997 5.77738 -0.0275255 5.41097C-0.0272446 5.25599 -0.0272214 5.101 -0.0274673 4.94602C-0.0276508 4.72858 -0.0266104 4.51118 -0.0252548 4.29375C-0.0255362 4.23061 -0.0258175 4.16746 -0.0261074 4.10241C-0.0196383 3.47269 0.119609 2.87436 0.406248 2.31248C0.427523 2.27051 0.448798 2.22854 0.470717 2.1853C0.985286 1.22176 1.93164 0.457602 2.97477 0.137725C3.42185 0.0186143 3.83216 -0.0273254 4.29376 -0.0252686Z" fill="#0F62D8"/>
<path d="M31.4895 20.5644C31.7862 20.7867 31.9693 21.1046 32.0231 21.4692C32.0324 21.6497 32.0338 21.8286 32.0323 22.0094C32.0328 22.0775 32.0332 22.1457 32.0337 22.2159C32.0348 22.4403 32.034 22.6647 32.0332 22.8891C32.0334 23.046 32.0336 23.203 32.0339 23.3599C32.0343 23.6887 32.0338 24.0174 32.0326 24.3462C32.0314 24.6824 32.0314 25.0186 32.0326 25.3548C32.034 25.7622 32.0343 26.1696 32.0334 26.5771C32.0333 26.7316 32.0335 26.8862 32.0341 27.0407C32.0386 28.5841 32.0386 28.5841 31.75 29.3124C31.7335 29.357 31.7169 29.4016 31.6999 29.4475C31.2739 30.5195 30.359 31.3087 29.3187 31.7635C28.7878 31.9615 28.2692 32.0277 27.7062 32.0252C27.6374 32.0256 27.5686 32.0261 27.4977 32.0265C27.2729 32.0276 27.0481 32.0274 26.8232 32.027C26.6658 32.0273 26.5083 32.0277 26.3508 32.028C26.022 32.0286 25.6931 32.0285 25.3643 32.0278C24.9852 32.0271 24.6062 32.028 24.2272 32.0297C23.8606 32.0312 23.4941 32.0314 23.1275 32.031C22.9723 32.031 22.8171 32.0313 22.662 32.0321C22.4451 32.033 22.2283 32.0324 22.0114 32.0313C21.9478 32.0319 21.8841 32.0325 21.8185 32.0331C21.3694 32.0285 21.0225 31.9429 20.686 31.6337C20.3891 31.2184 20.2669 30.8321 20.3125 30.3124C20.398 29.8833 20.589 29.5226 20.9375 29.2499C21.3308 29.0716 21.6543 29.0356 22.083 29.0384C22.177 29.0379 22.177 29.0379 22.2729 29.0374C22.4082 29.0368 22.5435 29.0366 22.6788 29.0368C22.8933 29.0371 23.1077 29.0362 23.3221 29.035C23.8544 29.0323 24.3868 29.0316 24.9192 29.0309C25.3696 29.0301 25.8199 29.0287 26.2703 29.0262C26.4811 29.0253 26.6919 29.0256 26.9026 29.0259C27.0324 29.0253 27.1622 29.0247 27.292 29.024C27.3502 29.0244 27.4084 29.0248 27.4683 29.0252C27.9095 29.021 28.2658 28.9574 28.6133 28.664C28.8809 28.3429 29.0075 28.0815 29.0082 27.6644C29.0084 27.6102 29.0087 27.556 29.009 27.5001C29.0089 27.4411 29.0089 27.3821 29.0089 27.3213C29.0091 27.2588 29.0093 27.1962 29.0095 27.1318C29.01 26.996 29.0103 26.8602 29.0105 26.7244C29.011 26.5092 29.012 26.294 29.0131 26.0788C29.0164 25.467 29.0194 24.8551 29.0204 24.2432C29.021 23.8689 29.0228 23.4946 29.0254 23.1203C29.0262 22.9779 29.0265 22.8355 29.0264 22.693C29.0262 22.4933 29.0276 22.2937 29.0294 22.094C29.029 22.0356 29.0285 21.9773 29.0281 21.9171C29.0343 21.4833 29.1218 21.0937 29.4134 20.7591C29.9833 20.2075 30.815 20.1847 31.4895 20.5644Z" fill="#0F61D8"/>
<path d="M22.0094 -0.0323462C22.0776 -0.0327843 22.1458 -0.0332224 22.216 -0.0336737C22.4404 -0.0347702 22.6648 -0.0340465 22.8892 -0.0332007C23.0461 -0.0333693 23.203 -0.033612 23.36 -0.0339255C23.6887 -0.0342937 24.0175 -0.0337839 24.3463 -0.0325903C24.6825 -0.0313838 25.0186 -0.0313773 25.3548 -0.0325903C25.7623 -0.0340473 26.1697 -0.0342629 26.5772 -0.0334515C26.7317 -0.0332858 26.8862 -0.0334857 27.0407 -0.0340714C28.5842 -0.0386358 28.5842 -0.0386358 29.3125 0.250002C29.3793 0.274785 29.3793 0.274785 29.4475 0.300067C30.5195 0.726089 31.3087 1.64103 31.7636 2.6813C31.9616 3.21217 32.0278 3.73082 32.0253 4.29376C32.0257 4.36257 32.0261 4.43137 32.0266 4.50225C32.0277 4.7271 32.0275 4.95191 32.0271 5.17676C32.0274 5.33423 32.0277 5.49171 32.0281 5.64918C32.0286 5.97804 32.0285 6.30689 32.0279 6.63574C32.0272 7.01478 32.028 7.39379 32.0297 7.77283C32.0313 8.13938 32.0314 8.50592 32.031 8.87247C32.031 9.02766 32.0314 9.18285 32.0322 9.33804C32.0331 9.55491 32.0324 9.77172 32.0314 9.98859C32.0323 10.0841 32.0323 10.0841 32.0332 10.1815C32.0286 10.6306 31.9429 10.9775 31.6338 11.314C31.2184 11.6109 30.8321 11.7331 30.3125 11.6875C29.8833 11.602 29.5226 11.411 29.25 11.0625C29.0716 10.6692 29.0356 10.3457 29.0385 9.917C29.0381 9.85433 29.0378 9.79166 29.0374 9.72709C29.0368 9.59178 29.0366 9.45646 29.0368 9.32115C29.0371 9.10673 29.0362 8.89234 29.0351 8.67792C29.0324 8.14556 29.0317 7.61321 29.0309 7.08084C29.0302 6.63044 29.0287 6.18005 29.0262 5.72965C29.0254 5.51888 29.0257 5.30813 29.026 5.09735C29.0254 4.96757 29.0247 4.83779 29.024 4.70801C29.0244 4.64981 29.0248 4.59162 29.0252 4.53166C29.0211 4.09047 28.9575 3.73421 28.6641 3.38672C28.3429 3.1191 28.0816 2.99249 27.6645 2.9918C27.6102 2.99155 27.556 2.9913 27.5001 2.99104C27.4411 2.99107 27.3822 2.9911 27.3214 2.99114C27.2588 2.99092 27.1963 2.9907 27.1319 2.99048C26.9961 2.99002 26.8603 2.98969 26.7245 2.98946C26.5093 2.98901 26.2941 2.98803 26.0789 2.98688C25.467 2.9836 24.8552 2.9806 24.2433 2.97963C23.869 2.979 23.4946 2.97716 23.1203 2.97455C22.9779 2.97378 22.8355 2.97346 22.6931 2.9736C22.4934 2.97375 22.2938 2.97236 22.0941 2.97063C22.0357 2.97104 21.9773 2.97145 21.9172 2.97188C21.4834 2.96574 21.0938 2.87819 20.7592 2.58656C20.4547 2.27202 20.3358 1.90082 20.2891 1.47266C20.3399 0.989883 20.4524 0.586081 20.8125 0.250002C21.1977 -0.0126015 21.5535 -0.0359824 22.0094 -0.0323462Z" fill="#0F62D8"/>
<path d="M20.4899 23.2389C20.5391 23.2385 20.5882 23.2381 20.6388 23.2377C20.8011 23.2364 20.9634 23.2357 21.1258 23.2351C21.1814 23.2348 21.237 23.2346 21.2943 23.2343C21.5887 23.233 21.8832 23.2321 22.1776 23.2315C22.4808 23.2308 22.784 23.2287 23.0871 23.2262C23.3211 23.2246 23.555 23.2241 23.789 23.2238C23.9007 23.2235 24.0124 23.2228 24.1241 23.2216C25.3796 23.2094 25.3796 23.2094 25.8035 23.6094C26.1839 24.0149 26.2217 24.4157 26.2068 24.958C26.1716 25.3773 26.0293 25.6179 25.7227 25.8984C25.3982 26.168 25.0845 26.2061 24.6723 26.2056C24.6213 26.2061 24.5702 26.2065 24.5176 26.2069C24.3492 26.2081 24.1809 26.2083 24.0125 26.2085C23.895 26.2089 23.7776 26.2093 23.6601 26.2097C23.414 26.2105 23.1678 26.2107 22.9217 26.2106C22.6071 26.2106 22.2925 26.2123 21.9779 26.2145C21.7353 26.2159 21.4927 26.2161 21.25 26.2161C21.1341 26.2162 21.0181 26.2168 20.9022 26.2177C20.7396 26.219 20.5771 26.2186 20.4145 26.2179C20.3671 26.2186 20.3197 26.2193 20.2709 26.22C19.8343 26.2149 19.5112 26.0706 19.1993 25.7656C18.8982 25.3184 18.8169 24.9135 18.875 24.375C18.9579 24.0206 19.11 23.7025 19.417 23.4902C19.7832 23.2711 20.0707 23.2404 20.4899 23.2389Z" fill="#0F61D8"/>
<path d="M19.7012 17.5513C20.0245 17.7654 20.2571 18.0703 20.375 18.4375C20.3883 18.6171 20.3955 18.7904 20.396 18.97C20.3964 19.0211 20.3968 19.0722 20.3972 19.1248C20.3979 19.2326 20.3982 19.3405 20.3982 19.4483C20.3984 19.6121 20.4007 19.7758 20.4031 19.9396C20.4034 20.0448 20.4037 20.15 20.4038 20.2552C20.4047 20.3035 20.4056 20.3519 20.4065 20.4018C20.4032 20.8073 20.2834 21.1326 20.0137 21.439C19.9782 21.4669 19.9428 21.4947 19.9062 21.5235C19.8708 21.5523 19.8353 21.5811 19.7988 21.6109C19.4486 21.852 19.0803 21.902 18.6599 21.8596C18.1664 21.7653 17.8554 21.5237 17.5625 21.125C17.423 20.8541 17.4174 20.5945 17.4165 20.2959C17.4161 20.2464 17.4157 20.1968 17.4152 20.1458C17.4146 20.0411 17.4143 19.9365 17.4143 19.8318C17.4141 19.6733 17.4118 19.5148 17.4094 19.3562C17.4016 18.2456 17.4016 18.2456 17.7951 17.8216C18.2809 17.3566 19.0906 17.2796 19.7012 17.5513Z" fill="#0F61D8"/>
<path d="M23.3863 17.4187C23.4345 17.4185 23.4827 17.4182 23.5324 17.4179C23.634 17.4176 23.7356 17.4175 23.8372 17.4178C23.9913 17.418 24.1454 17.4165 24.2996 17.415C24.3988 17.4148 24.498 17.4148 24.5972 17.4148C24.6427 17.4143 24.6881 17.4137 24.735 17.4131C25.116 17.4165 25.4647 17.4915 25.7652 17.7417C25.7988 17.7831 25.8325 17.8246 25.8672 17.8672C25.9019 17.9083 25.9365 17.9494 25.9722 17.9917C26.2591 18.4151 26.2288 18.8841 26.1875 19.375C26.088 19.7636 25.8315 20.0337 25.5 20.25C25.2234 20.3901 24.9589 20.3952 24.6551 20.396C24.604 20.3964 24.5529 20.3969 24.5002 20.3973C24.3924 20.3979 24.2846 20.3982 24.1767 20.3982C24.0129 20.3985 23.8492 20.4007 23.6855 20.4031C23.5803 20.4035 23.4751 20.4037 23.3699 20.4038C23.2973 20.4052 23.2973 20.4052 23.2233 20.4066C22.8176 20.4032 22.4948 20.2823 22.1861 20.0159C22.1582 19.981 22.1303 19.9461 22.1016 19.9102C22.0727 19.8755 22.0439 19.8407 22.0142 19.805C21.7405 19.3857 21.7721 18.9185 21.8125 18.4375C21.9109 18.0536 22.1661 17.7697 22.5 17.5625C22.7972 17.4422 23.0694 17.4183 23.3863 17.4187Z" fill="#0F62D7"/>
</g>
<defs>
<clipPath id="clip0_274_8063">
<rect width="32" height="32" fill="white"/>
</clipPath>
</defs>
</svg>
