<svg width="54" height="54" viewBox="0 0 54 54" fill="none" xmlns="http://www.w3.org/2000/svg">
<path d="M35.455 12.8146C34.0179 11.6456 32.3349 10.8087 30.529 10.3649C28.7232 9.92111 26.8399 9.88159 25.0166 10.2493C22.5888 10.7342 20.3615 11.9214 18.6171 13.6603C16.8727 15.3992 15.6899 17.6113 15.2188 20.016C14.8748 21.819 14.9373 23.6748 15.4019 25.4512C15.8665 27.2276 16.7217 28.8807 17.9066 30.2926C19.0062 31.5197 19.6365 33.089 19.688 34.7278V39.3639C19.688 40.5935 20.1819 41.7727 21.061 42.6421C21.9402 43.5116 23.1326 44 24.3759 44H30.6265C31.8698 44 33.0622 43.5116 33.9413 42.6421C34.8205 41.7727 35.3144 40.5935 35.3144 39.3639V35.0214C35.3668 33.2121 36.039 31.4739 37.2208 30.0917C39.2915 27.5585 40.2676 24.3195 39.937 21.0786C39.6063 17.8377 37.9957 14.8567 35.455 12.7836V12.8146ZM32.1891 39.3639C32.1891 39.7738 32.0245 40.1668 31.7314 40.4566C31.4384 40.7465 31.0409 40.9093 30.6265 40.9093H24.3759C23.9615 40.9093 23.564 40.7465 23.2709 40.4566C22.9779 40.1668 22.8133 39.7738 22.8133 39.3639V37.8185H32.1891V39.3639ZM34.7987 28.1755C33.2275 30.0185 32.3108 32.3202 32.1891 34.7278H29.0638V30.0917C29.0638 29.6819 28.8992 29.2888 28.6061 28.999C28.3131 28.7092 27.9156 28.5464 27.5012 28.5464C27.0867 28.5464 26.6893 28.7092 26.3962 28.999C26.1032 29.2888 25.9385 29.6819 25.9385 30.0917V34.7278H22.8133C22.772 32.3605 21.8865 30.0836 20.313 28.2991C19.2749 27.069 18.5768 25.5938 18.2868 24.0174C17.9968 22.441 18.1248 20.8172 18.6583 19.3044C19.1919 17.7915 20.1127 16.4411 21.3311 15.385C22.5495 14.3289 24.0239 13.603 25.6104 13.2782C26.9739 13.0005 28.3828 13.0266 29.7348 13.3546C31.0868 13.6826 32.348 14.3042 33.4268 15.1743C34.5056 16.0443 35.375 17.1411 35.9718 18.3848C36.5686 19.6286 36.8778 20.9882 36.877 22.3649C36.8886 24.4818 36.1537 26.5366 34.7987 28.1755Z" fill="#1062D8"/>
</svg>
