<svg width="54" height="54" viewBox="0 0 54 54" fill="none" xmlns="http://www.w3.org/2000/svg">
<mask id="mask0_37_1172" style="mask-type:alpha" maskUnits="userSpaceOnUse" x="11" y="27" width="32" height="16">
<rect x="11" y="27.2859" width="31.4286" height="15.7141" fill="#D9D9D9"/>
</mask>
<g mask="url(#mask0_37_1172)">
<path d="M26.7143 39.8572H15.7143C15.2975 39.8572 14.8978 39.6916 14.6031 39.3969C14.3084 39.1022 14.1429 38.7025 14.1429 38.2858V16.2861C14.1429 15.8693 14.3084 15.4696 14.6031 15.1749C14.8978 14.8802 15.2975 14.7147 15.7143 14.7147H23.5714V19.4289C23.5714 20.6792 24.0681 21.8783 24.9522 22.7624C25.8363 23.6464 27.0354 24.1431 28.2857 24.1431H33V25.7145C33 25.5061 33.1656 25.3063 33.4603 25.1589C33.755 25.0116 34.1547 24.9288 34.5714 24.9288C34.9882 24.9288 35.3879 25.0116 35.6826 25.1589C35.9773 25.3063 36.1429 25.5061 36.1429 25.7145V22.5717C36.1429 22.5717 36.1429 22.5717 36.1429 22.4774C36.1265 22.3331 36.0949 22.1908 36.0486 22.0531V21.9117C35.973 21.7501 35.8722 21.6016 35.75 21.4717L26.3214 12.0433C26.1915 11.9211 26.043 11.8203 25.8814 11.7447C25.8345 11.7381 25.7869 11.7381 25.74 11.7447C25.5804 11.6532 25.4041 11.5944 25.2214 11.5719H15.7143C14.464 11.5719 13.2649 12.0685 12.3808 12.9526C11.4967 13.8367 11 15.0358 11 16.2861V38.2858C11 39.5361 11.4967 40.7351 12.3808 41.6192C13.2649 42.5033 14.464 43 15.7143 43H26.7143C27.1311 43 27.5308 42.8344 27.8255 42.5397C28.1202 42.245 28.2857 41.8453 28.2857 41.4286C28.2857 41.0118 28.1202 40.6121 27.8255 40.3174C27.5308 40.0227 27.1311 39.8572 26.7143 39.8572ZM26.7143 16.9304L30.7843 21.0003H28.2857C27.8689 21.0003 27.4692 20.8347 27.1745 20.54C26.8798 20.2454 26.7143 19.8457 26.7143 19.4289V16.9304ZM18.8571 21.0003C18.4404 21.0003 18.0407 21.1659 17.746 21.4606C17.4513 21.7553 17.2857 22.1549 17.2857 22.5717C17.2857 22.9885 17.4513 23.3882 17.746 23.6829C18.0407 23.9776 18.4404 24.1431 18.8571 24.1431H20.4286C20.8453 24.1431 21.245 23.9776 21.5397 23.6829C21.8344 23.3882 22 22.9885 22 22.5717C22 22.1549 21.8344 21.7553 21.5397 21.4606C21.245 21.1659 20.8453 21.0003 20.4286 21.0003H18.8571ZM41.9729 40.3129L40.1343 38.4901C40.7219 37.4643 40.9571 36.2742 40.8039 35.1021C40.6506 33.9299 40.1173 32.8403 39.2857 32.0001C38.5205 31.2076 37.5343 30.664 36.4556 30.44C35.377 30.216 34.2558 30.322 33.2383 30.7443C32.2208 31.1665 31.354 31.8855 30.7509 32.8074C30.1478 33.7293 29.8364 34.8115 29.8571 35.9129C29.8517 36.8608 30.0942 37.7936 30.5605 38.6188C31.0269 39.444 31.7008 40.133 32.5156 40.6174C33.3303 41.1018 34.2576 41.3648 35.2053 41.3803C36.1531 41.3958 37.0884 41.1632 37.9186 40.7057L39.7414 42.5443C39.8875 42.6916 40.0613 42.8085 40.2528 42.8882C40.4443 42.968 40.6497 43.0091 40.8571 43.0091C41.0646 43.0091 41.27 42.968 41.4615 42.8882C41.653 42.8085 41.8268 42.6916 41.9729 42.5443C42.1201 42.3982 42.2371 42.2244 42.3168 42.0329C42.3966 41.8414 42.4377 41.636 42.4377 41.4286C42.4377 41.2211 42.3966 41.0157 42.3168 40.8243C42.2371 40.6328 42.1201 40.459 41.9729 40.3129ZM36.9914 37.5629C36.5426 37.985 35.9497 38.22 35.3336 38.22C34.7175 38.22 34.1245 37.985 33.6757 37.5629C33.2431 37.1226 33.0005 36.5302 33 35.9129C32.9967 35.603 33.0563 35.2956 33.1752 35.0093C33.294 34.723 33.4696 34.4638 33.6914 34.2473C34.1104 33.8306 34.6722 33.589 35.2629 33.5716C35.5806 33.552 35.8989 33.5984 36.1978 33.7077C36.4968 33.817 36.7699 33.9869 37.0001 34.2067C37.2302 34.4266 37.4125 34.6916 37.5354 34.9852C37.6583 35.2788 37.7192 35.5947 37.7143 35.9129C37.7013 36.5369 37.4413 37.1303 36.9914 37.5629ZM25.1429 33.5716C25.5596 33.5716 25.9593 33.406 26.254 33.1113C26.5487 32.8166 26.7143 32.4169 26.7143 32.0001C26.7143 31.5834 26.5487 31.1837 26.254 30.889C25.9593 30.5943 25.5596 30.4287 25.1429 30.4287H18.8571C18.4404 30.4287 18.0407 30.5943 17.746 30.889C17.4513 31.1837 17.2857 31.5834 17.2857 32.0001C17.2857 32.4169 17.4513 32.8166 17.746 33.1113C18.0407 33.406 18.4404 33.5716 18.8571 33.5716H25.1429Z" fill="#1062D8"/>
</g>
<mask id="mask1_37_1172" style="mask-type:alpha" maskUnits="userSpaceOnUse" x="11" y="10" width="26" height="19">
<rect width="25.1429" height="18.8569" transform="matrix(1 0 0 -1 11 28.8569)" fill="#D9D9D9"/>
</mask>
<g mask="url(#mask1_37_1172)">
<path d="M25.1429 28.8569H18.8571C18.4404 28.8569 18.0407 29.0224 17.746 29.3171C17.4513 29.6118 17.2857 30.0115 17.2857 30.4283C17.2857 30.845 17.4513 31.2447 17.746 31.5394C18.0407 31.8341 18.4404 31.9997 18.8571 31.9997H25.1429C25.5596 31.9997 25.9593 31.8341 26.254 31.5394C26.5487 31.2447 26.7143 30.845 26.7143 30.4283C26.7143 30.0115 26.5487 29.6118 26.254 29.3171C25.9593 29.0224 25.5596 28.8569 25.1429 28.8569ZM31.4286 13.1428H29.5743C29.2501 12.2258 28.6502 11.4315 27.8568 10.8689C27.0635 10.3062 26.1155 10.0027 25.1429 10H22C21.0274 10.0027 20.0794 10.3062 19.286 10.8689C18.4927 11.4315 17.8928 12.2258 17.5686 13.1428H15.7143C14.464 13.1428 13.2649 13.6395 12.3808 14.5236C11.4967 15.4077 11 16.6067 11 17.857V36.7139C11 37.9642 11.4967 39.1633 12.3808 40.0474C13.2649 40.9314 14.464 41.4281 15.7143 41.4281H31.4286C32.6789 41.4281 33.878 40.9314 34.7621 40.0474C35.6462 39.1633 36.1429 37.9642 36.1429 36.7139V17.857C36.1429 16.6067 35.6462 15.4077 34.7621 14.5236C33.878 13.6395 32.6789 13.1428 31.4286 13.1428ZM20.4286 14.7142C20.4286 14.2975 20.5941 13.8978 20.8888 13.6031C21.1835 13.3084 21.5832 13.1428 22 13.1428H25.1429C25.5596 13.1428 25.9593 13.3084 26.254 13.6031C26.5487 13.8978 26.7143 14.2975 26.7143 14.7142V16.2856H20.4286V14.7142ZM33 36.7139C33 37.1307 32.8344 37.5304 32.5397 37.8251C32.245 38.1197 31.8453 38.2853 31.4286 38.2853H15.7143C15.2975 38.2853 14.8978 38.1197 14.6031 37.8251C14.3084 37.5304 14.1429 37.1307 14.1429 36.7139V17.857C14.1429 17.4403 14.3084 17.0406 14.6031 16.7459C14.8978 16.4512 15.2975 16.2856 15.7143 16.2856H17.2857V17.857C17.2857 18.2738 17.4513 18.6735 17.746 18.9682C18.0407 19.2629 18.4404 19.4284 18.8571 19.4284H28.2857C28.7025 19.4284 29.1022 19.2629 29.3969 18.9682C29.6916 18.6735 29.8571 18.2738 29.8571 17.857V16.2856H31.4286C31.8453 16.2856 32.245 16.4512 32.5397 16.7459C32.8344 17.0406 33 17.4403 33 17.857V36.7139ZM28.2857 24.1427H18.8571C18.4404 24.1427 18.0407 24.3082 17.746 24.6029C17.4513 24.8976 17.2857 25.2973 17.2857 25.7141C17.2857 26.1308 17.4513 26.5305 17.746 26.8252C18.0407 27.1199 18.4404 27.2855 18.8571 27.2855H28.2857C28.7025 27.2855 29.1022 27.1199 29.3969 26.8252C29.6916 26.5305 29.8571 26.1308 29.8571 25.7141C29.8571 25.2973 29.6916 24.8976 29.3969 24.6029C29.1022 24.3082 28.7025 24.1427 28.2857 24.1427Z" fill="#1062D8"/>
</g>
</svg>
