<svg width="54" height="54" viewBox="0 0 54 54" fill="none" xmlns="http://www.w3.org/2000/svg">
<path d="M33.6667 29.8H20.3333C19.8913 29.8 19.4674 29.9738 19.1548 30.2833C18.8423 30.5927 18.6667 31.0124 18.6667 31.45C18.6667 31.8876 18.8423 32.3073 19.1548 32.6167C19.4674 32.9262 19.8913 33.1 20.3333 33.1H33.6667C34.1087 33.1 34.5326 32.9262 34.8452 32.6167C35.1577 32.3073 35.3333 31.8876 35.3333 31.45C35.3333 31.0124 35.1577 30.5927 34.8452 30.2833C34.5326 29.9738 34.1087 29.8 33.6667 29.8ZM33.6667 23.2H23.6667C23.2246 23.2 22.8007 23.3738 22.4882 23.6833C22.1756 23.9927 22 24.4124 22 24.85C22 25.2876 22.1756 25.7073 22.4882 26.0167C22.8007 26.3262 23.2246 26.5 23.6667 26.5H33.6667C34.1087 26.5 34.5326 26.3262 34.8452 26.0167C35.1577 25.7073 35.3333 25.2876 35.3333 24.85C35.3333 24.4124 35.1577 23.9927 34.8452 23.6833C34.5326 23.3738 34.1087 23.2 33.6667 23.2ZM40.3333 13.3H35.3333V11.65C35.3333 11.2124 35.1577 10.7927 34.8452 10.4833C34.5326 10.1738 34.1087 10 33.6667 10C33.2246 10 32.8007 10.1738 32.4882 10.4833C32.1756 10.7927 32 11.2124 32 11.65V13.3H28.6667V11.65C28.6667 11.2124 28.4911 10.7927 28.1785 10.4833C27.8659 10.1738 27.442 10 27 10C26.558 10 26.134 10.1738 25.8215 10.4833C25.5089 10.7927 25.3333 11.2124 25.3333 11.65V13.3H22V11.65C22 11.2124 21.8244 10.7927 21.5118 10.4833C21.1993 10.1738 20.7754 10 20.3333 10C19.8913 10 19.4674 10.1738 19.1548 10.4833C18.8423 10.7927 18.6667 11.2124 18.6667 11.65V13.3H13.6667C13.2246 13.3 12.8007 13.4738 12.4882 13.7833C12.1756 14.0927 12 14.5124 12 14.95V38.05C12 39.3628 12.5268 40.6219 13.4645 41.5502C14.4021 42.4785 15.6739 43 17 43H37C38.3261 43 39.5979 42.4785 40.5355 41.5502C41.4732 40.6219 42 39.3628 42 38.05V14.95C42 14.5124 41.8244 14.0927 41.5118 13.7833C41.1993 13.4738 40.7754 13.3 40.3333 13.3ZM38.6667 38.05C38.6667 38.4876 38.4911 38.9073 38.1785 39.2167C37.866 39.5262 37.442 39.7 37 39.7H17C16.558 39.7 16.134 39.5262 15.8215 39.2167C15.5089 38.9073 15.3333 38.4876 15.3333 38.05V16.6H18.6667V18.25C18.6667 18.6876 18.8423 19.1073 19.1548 19.4167C19.4674 19.7262 19.8913 19.9 20.3333 19.9C20.7754 19.9 21.1993 19.7262 21.5118 19.4167C21.8244 19.1073 22 18.6876 22 18.25V16.6H25.3333V18.25C25.3333 18.6876 25.5089 19.1073 25.8215 19.4167C26.134 19.7262 26.558 19.9 27 19.9C27.442 19.9 27.8659 19.7262 28.1785 19.4167C28.4911 19.1073 28.6667 18.6876 28.6667 18.25V16.6H32V18.25C32 18.6876 32.1756 19.1073 32.4882 19.4167C32.8007 19.7262 33.2246 19.9 33.6667 19.9C34.1087 19.9 34.5326 19.7262 34.8452 19.4167C35.1577 19.1073 35.3333 18.6876 35.3333 18.25V16.6H38.6667V38.05Z" fill="#1062D8"/>
</svg>
