<svg width="33" height="33" viewBox="0 0 33 33" fill="none" xmlns="http://www.w3.org/2000/svg">
<g clip-path="url(#clip0_274_8040)">
<path d="M2.22365 0.0902557C1.68869 0.219162 1.28264 0.451191 0.863691 0.863693C0.444746 1.28908 0.186934 1.7467 0.0709179 2.30744C-0.0257618 2.7844 -0.0322071 16.2229 0.0709179 16.7063C0.180488 17.2219 0.547871 17.8793 0.921699 18.2145C1.59201 18.8139 2.21721 19.0137 3.42893 19.0137H4.25393V20.5283C4.25393 22.2041 4.27971 22.3395 4.6342 22.6424C4.93068 22.8938 5.19494 22.9196 5.88459 22.7584C7.80529 22.3137 9.5842 20.9989 10.4414 19.394L10.6412 19.0137H12.317H13.9863V24.6856C13.9863 28.6365 14.0057 30.4541 14.0572 30.6926C14.2893 31.7754 15.211 32.6971 16.2938 32.9291C16.7707 33.0323 30.2092 33.0323 30.6926 32.9291C31.7947 32.6971 32.6906 31.8012 32.9291 30.6926C33.0322 30.2092 33.0322 16.7772 32.9291 16.2938C32.7551 15.4817 32.1879 14.734 31.4725 14.3602C30.8988 14.0572 30.5186 13.9864 29.5518 13.9864H28.7526L28.7332 12.3815C28.7139 10.609 28.7139 10.6155 28.2692 10.2867C27.7793 9.91936 26.0906 10.3899 24.75 11.2664C23.867 11.8401 22.9453 12.8391 22.5199 13.6705L22.3653 13.9864H20.6895H19.0137V8.29514C19.0137 3.46115 19.0008 2.55236 18.917 2.23654C18.627 1.12795 17.7826 0.296505 16.7063 0.070919C16.1971 -0.0322075 2.66838 -0.0193176 2.22365 0.0902557ZM16.5709 2.07541C16.732 2.16565 16.8674 2.31389 16.9512 2.48147C17.0801 2.74572 17.0801 2.88107 17.0801 9.50686C17.0801 16.1069 17.0801 16.2744 16.9512 16.5322C16.8803 16.674 16.732 16.8481 16.616 16.919C16.4162 17.0414 16.2487 17.0479 13.0389 17.0801C9.76467 17.1123 9.67443 17.1188 9.49396 17.2477C9.39084 17.325 9.15236 17.686 8.92678 18.1178C8.59807 18.7365 8.44982 18.9428 7.95998 19.4391C7.42502 19.9805 6.74182 20.4639 6.32932 20.5864L6.18752 20.6315V19.2264C6.18752 17.6795 6.15529 17.5184 5.78146 17.2477C5.61389 17.1252 5.48498 17.1123 4.10568 17.0801C2.42346 17.0414 2.32678 17.0156 2.06896 16.5645C1.93361 16.3196 1.93361 16.3067 1.93361 9.50041C1.94006 1.83049 1.90139 2.40412 2.42346 2.0883L2.67482 1.93361H9.50041H16.3195L16.5709 2.07541ZM26.8125 13.7737C26.8125 15.3205 26.8447 15.4817 27.2186 15.7524C27.3861 15.8748 27.5151 15.8877 28.8944 15.9199C30.5766 15.9586 30.6733 15.9844 30.9311 16.4356C31.0664 16.6805 31.0664 16.6934 31.0664 23.4867C31.0664 30.1834 31.0664 30.2994 30.9375 30.5508C30.8537 30.7184 30.7184 30.8537 30.5508 30.9375C30.2994 31.0664 30.1834 31.0664 23.4867 31.0664H16.6805L16.4291 30.9246C16.268 30.8344 16.1326 30.6862 16.0488 30.5186C15.9199 30.2608 15.9199 30.119 15.9199 24.634V19.0137H16.1649C17.1123 19.0137 18.2209 18.324 18.6528 17.4797C18.8526 17.0801 19.0137 16.5 19.0137 16.1649V15.9264L21.1664 15.9071C23.2289 15.8877 23.332 15.8813 23.5061 15.7524C23.6092 15.675 23.8541 15.3076 24.0733 14.8887C24.6404 13.8188 25.3752 13.0647 26.3291 12.5748C26.5418 12.4653 26.7352 12.375 26.7674 12.375C26.7932 12.375 26.8125 13.0067 26.8125 13.7737Z" fill="#1062D8"/>
<path d="M9.0879 4.78246C8.72696 4.96938 8.57872 5.22074 8.52716 5.76215L8.48848 6.18754H6.99962C5.68477 6.18754 5.47852 6.20688 5.24649 6.31C4.71798 6.54848 4.51817 7.10277 4.78243 7.59906C5.00157 8.01801 5.24005 8.12113 6.00704 8.12113H6.63223L6.67091 8.42406C6.80626 9.44242 7.34766 10.912 7.81817 11.5307C7.91485 11.6532 7.97286 11.7692 7.95997 11.8014C7.9213 11.8594 7.16075 12.1495 6.79981 12.2397C6.65802 12.2784 6.24552 12.3493 5.88458 12.4008C5.12403 12.5039 4.90489 12.6264 4.74376 13.0325C4.58907 13.4192 4.65352 13.7414 4.9629 14.0508C5.25938 14.3473 5.47852 14.3924 6.18751 14.3086C7.24454 14.1733 8.13399 13.9026 8.98477 13.4514L9.50684 13.1743L9.95802 13.4192C10.8281 13.8897 11.7563 14.1797 12.8455 14.3086C13.4127 14.3731 13.49 14.3731 13.7479 14.2571C14.257 14.0315 14.4762 13.5288 14.2764 13.0325C14.1088 12.6264 13.8961 12.5039 13.1291 12.4008C12.7682 12.3493 12.3557 12.2784 12.2139 12.2397C11.8594 12.1495 11.0924 11.8594 11.0602 11.8014C11.0408 11.7756 11.1182 11.6274 11.2277 11.4727C11.7176 10.7444 12.1107 9.74535 12.2783 8.77856C12.3299 8.46918 12.375 8.19848 12.375 8.16625C12.375 8.14047 12.6586 8.12113 13.0066 8.12113C13.7801 8.12113 14.0121 8.01801 14.2377 7.58617C14.4053 7.25102 14.3924 7.00609 14.1797 6.6516C13.9283 6.2391 13.7027 6.18754 11.9754 6.18754H10.4414V5.74926C10.4414 5.20785 10.2932 4.94359 9.90645 4.76957C9.55841 4.60844 9.43595 4.60844 9.0879 4.78246ZM10.377 8.29516C10.3705 8.785 9.99669 9.85492 9.66153 10.3254L9.51973 10.5252L9.39083 10.3705C9.02345 9.91938 8.56583 8.59164 8.63028 8.16625C8.63673 8.14047 9.02989 8.12113 9.50684 8.12113H10.377V8.29516Z" fill="#1062D8"/>
<path d="M23.0742 18.7687L22.7842 18.917L20.7733 22.9131C19.6647 25.1109 18.7301 27.0252 18.6914 27.1605C18.627 27.3668 18.6334 27.4635 18.7237 27.689C18.9428 28.2691 19.4906 28.4883 20.032 28.2176C20.3156 28.0758 20.3608 28.0242 20.7539 27.2508L21.1729 26.4258H23.4932H25.8135L26.2324 27.2508C26.6256 28.0242 26.6707 28.0758 26.9543 28.2176C27.1992 28.34 27.3153 28.3594 27.5344 28.3271C27.9147 28.2627 28.2627 27.9146 28.3272 27.5215C28.3723 27.2379 28.3465 27.1799 26.2904 23.0742L24.2022 18.917L23.9121 18.7687C23.7574 18.6914 23.5641 18.6269 23.4932 18.6269C23.4223 18.6269 23.2289 18.6914 23.0742 18.7687ZM24.808 24.4406C24.8145 24.4728 24.2215 24.4922 23.4932 24.4922C22.7649 24.4922 22.1719 24.4793 22.1719 24.4599C22.1719 24.4406 22.4684 23.8347 22.8293 23.1064L23.4932 21.7851L24.1506 23.0871C24.5115 23.809 24.808 24.4148 24.808 24.4406Z" fill="#1062D8"/>
<path d="M23.8799 0.0902557C23.7768 0.141818 23.1709 0.696115 22.5457 1.32776C20.9408 2.95197 20.9408 2.90041 22.5199 4.49885C23.6027 5.601 23.8734 5.8008 24.2795 5.8008C24.7565 5.8008 25.2012 5.36252 25.2012 4.88557C25.2012 4.56975 25.1238 4.38283 24.8789 4.10569L24.6856 3.8801L24.9563 3.91233C27.7342 4.24104 30.0094 6.1553 30.7699 8.79143C30.8602 9.1008 30.9762 9.75178 31.0277 10.2287C31.118 11.0924 31.1244 11.1053 31.3371 11.3244C31.8399 11.8207 32.6004 11.6789 32.884 11.0344C33.0129 10.7508 33.0129 10.6928 32.942 9.95803C32.8518 9.01701 32.6906 8.32092 32.3877 7.52815C31.6143 5.52365 30.0674 3.82209 28.1016 2.83596C27.5022 2.53303 26.284 2.15276 25.6524 2.06252C25.3494 2.02385 25.0078 1.97229 24.8854 1.9594L24.6662 1.92717L24.866 1.72092C25.1303 1.43733 25.2012 1.27619 25.2012 0.947482C25.2012 0.270724 24.4986 -0.186893 23.8799 0.0902557Z" fill="#1062D8"/>
<path d="M0.541412 21.4629C0.025787 21.7272 -0.077338 22.1397 0.0709042 23.3643C0.476959 26.7094 2.82305 29.5582 6.02637 30.6024C6.64512 30.8086 7.65704 31.002 8.08243 31.002H8.34024L8.17911 31.1825C7.9084 31.4789 7.8504 31.5692 7.79883 31.8077C7.69571 32.2782 7.94063 32.7293 8.40469 32.9034C8.63672 32.9936 8.72696 33 8.96544 32.9356C9.20391 32.8711 9.41661 32.6971 10.3318 31.7883C10.9313 31.1954 11.4598 30.6282 11.5178 30.525C11.6338 30.3059 11.6402 29.8483 11.5371 29.6356C11.434 29.4422 9.64864 27.6311 9.31993 27.3862C9.12012 27.2379 9.00411 27.1993 8.73985 27.1993C8.15333 27.1993 7.78594 27.5602 7.78594 28.1338C7.78594 28.4432 7.86973 28.6301 8.10821 28.8879L8.27579 29.0684H8.10821C7.76661 29.0684 6.84493 28.8557 6.34864 28.6688C5.34962 28.2821 4.73087 27.876 3.9252 27.0704C2.70704 25.8522 2.09473 24.4987 1.94649 22.6682C1.90137 22.1397 1.85626 21.927 1.75958 21.7981C1.43731 21.3663 0.986139 21.2373 0.541412 21.4629Z" fill="#1062D8"/>
</g>
<defs>
<clipPath id="clip0_274_8040">
<rect width="33" height="33" fill="white"/>
</clipPath>
</defs>
</svg>
