<svg width="31" height="36" viewBox="0 0 31 36" fill="none" xmlns="http://www.w3.org/2000/svg">
<g clip-path="url(#clip0_289_8435)">
<path d="M23 22.1504C26.0376 22.1504 28.5 24.6128 28.5 27.6504C28.5 28.7004 28.2048 29.681 27.6943 30.5156C27.7263 30.5493 27.7586 30.5832 27.7881 30.6201L29.7881 33.1201C30.3572 33.8317 30.2418 34.8693 29.5303 35.4385C28.8187 36.0076 27.7812 35.8922 27.2119 35.1807L25.2148 32.6836C24.537 32.9823 23.7883 33.1504 23 33.1504C19.9624 33.1504 17.5 30.688 17.5 27.6504C17.5 24.6128 19.9624 22.1504 23 22.1504ZM12.5713 0C14.3475 3.70738e-05 15.9413 0.261069 17.1318 1.03027C18.4418 1.87672 19.0311 3.18167 19.0479 4.65039H20.5C21.1912 4.65039 22.2278 4.81309 23.1465 5.36426C24.1436 5.9625 25 7.03672 25 8.65039V20.1504H22V8.65039C22 8.41315 21.9445 8.28263 21.8965 8.20508C21.8429 8.11861 21.753 8.02622 21.6035 7.93652C21.2722 7.73776 20.8088 7.65039 20.5 7.65039H19.0498V7.7002C19.0498 9.2184 17.8191 10.4502 16.2998 10.4502H8.59961C7.08101 10.45 5.84961 9.21885 5.84961 7.7002V7.65234C4.5593 7.67503 3.8747 7.98843 3.5293 8.28613C3.20279 8.56761 3 8.98828 3 9.65039V27.1504C3 29.6987 3.38725 30.7848 3.74609 31.2461C4.00081 31.5734 4.39958 31.7822 5.49219 31.7832L15.4795 31.6504C16.3077 31.6393 16.9887 32.3017 17 33.1299C17.0111 33.9581 16.3487 34.6391 15.5205 34.6504L5.52051 34.7842H5.5C4.09862 34.7842 2.49857 34.5275 1.37891 33.0889C0.362789 31.7831 0 29.8018 0 27.1504V9.65039C0 8.31263 0.447075 6.98315 1.57031 6.01465C2.55254 5.1679 3.88711 4.74208 5.46484 4.66504C5.46484 4.65549 5.46484 4.65039 5.46484 4.65039H5.85156C5.86769 3.19978 6.429 1.87516 7.78906 1.01953C9.0053 0.254442 10.6621 0 12.5713 0ZM23 25.1504C21.6193 25.1504 20.5 26.2697 20.5 27.6504C20.5 29.0311 21.6193 30.1504 23 30.1504C24.3807 30.1504 25.5 29.0311 25.5 27.6504C25.5 26.2697 24.3807 25.1504 23 25.1504ZM14 22C14.9113 22 15.6504 22.7391 15.6504 23.6504C15.6504 24.5617 14.9113 25.3008 14 25.3008H7.5C6.58873 25.3008 5.84961 24.5617 5.84961 23.6504C5.84961 22.7391 6.58873 22 7.5 22H14ZM17.5 16C18.4113 16 19.1504 16.7391 19.1504 17.6504C19.1504 18.5617 18.4113 19.3008 17.5 19.3008H7.5C6.58873 19.3008 5.84961 18.5617 5.84961 17.6504C5.84961 16.7391 6.58873 16 7.5 16H17.5ZM12.5713 3.30078C10.8332 3.30078 9.95326 3.5572 9.5459 3.81348C9.30275 3.96655 9.15039 4.14813 9.15039 4.71484V7.15039H15.75V4.71484C15.75 4.16729 15.5923 3.96532 15.3408 3.80273C14.9506 3.55059 14.1294 3.30082 12.5713 3.30078Z" fill="#1062D8"/>
</g>
<defs>
<clipPath id="clip0_289_8435">
<rect width="31" height="36" fill="white"/>
</clipPath>
</defs>
</svg>
