<svg width="54" height="54" viewBox="0 0 54 54" fill="none" xmlns="http://www.w3.org/2000/svg">
<path d="M23.7265 41.5173H19.5883C19.1428 41.5173 18.7816 41.116 18.7816 40.6209C18.7816 37.5093 21.3812 34.9868 26.6935 34.9868C32.0058 34.9868 34.6054 37.5093 34.6054 40.6209C34.6054 41.116 34.2442 41.5173 33.7987 41.5173H29.2269L29.2269 36.4312M29.6604 28.6605C29.6604 27.0219 28.3321 25.6935 26.6935 25.6935C25.0549 25.6935 23.7265 27.0219 23.7265 28.6605C23.7265 29.5375 24.107 30.3256 24.7119 30.8687C25.2373 31.3404 25.9319 31.6274 26.6935 31.6274C27.4551 31.6274 28.1497 31.3404 28.675 30.8687C29.2799 30.3256 29.6604 29.5374 29.6604 28.6605Z" stroke="#1062D8" stroke-width="2.6" stroke-linecap="round"/>
<path d="M21.0421 32.7013H16.069C13.8217 32.7013 12 30.8795 12 28.6323L12 15.069C12 12.8217 13.8217 11 16.069 11L37.431 11C39.6783 11 41.5 12.8217 41.5 15.069V28.6323C41.5 30.8795 39.6783 32.7013 37.431 32.7013H32.91" stroke="#1062D8" stroke-width="2.6" stroke-linecap="round" stroke-linejoin="round"/>
</svg>
