<svg width="54" height="54" viewBox="0 0 54 54" fill="none" xmlns="http://www.w3.org/2000/svg">
<path d="M35.125 13.3H33.2075C32.8722 12.3371 32.2519 11.5031 31.4315 10.9123C30.6111 10.3215 29.6308 10.0029 28.625 10H25.375C24.3692 10.0029 23.3889 10.3215 22.5685 10.9123C21.7481 11.5031 21.1278 12.3371 20.7925 13.3H18.875C17.5821 13.3 16.3421 13.8215 15.4279 14.7498C14.5136 15.6781 14 16.9372 14 18.25V38.05C14 39.3628 14.5136 40.6219 15.4279 41.5502C16.3421 42.4785 17.5821 43 18.875 43H35.125C36.4179 43 37.6579 42.4785 38.5721 41.5502C39.4864 40.6219 40 39.3628 40 38.05V18.25C40 16.9372 39.4864 15.6781 38.5721 14.7498C37.6579 13.8215 36.4179 13.3 35.125 13.3ZM23.75 14.95C23.75 14.5124 23.9212 14.0927 24.226 13.7833C24.5307 13.4738 24.944 13.3 25.375 13.3H28.625C29.056 13.3 29.4693 13.4738 29.774 13.7833C30.0788 14.0927 30.25 14.5124 30.25 14.95V16.6H23.75V14.95ZM36.75 38.05C36.75 38.4876 36.5788 38.9073 36.274 39.2167C35.9693 39.5262 35.556 39.7 35.125 39.7H18.875C18.444 39.7 18.0307 39.5262 17.726 39.2167C17.4212 38.9073 17.25 38.4876 17.25 38.05V18.25C17.25 17.8124 17.4212 17.3927 17.726 17.0833C18.0307 16.7738 18.444 16.6 18.875 16.6H20.5V18.25C20.5 18.6876 20.6712 19.1073 20.976 19.4167C21.2807 19.7262 21.694 19.9 22.125 19.9H31.875C32.306 19.9 32.7193 19.7262 33.024 19.4167C33.3288 19.1073 33.5 18.6876 33.5 18.25V16.6H35.125C35.556 16.6 35.9693 16.7738 36.274 17.0833C36.5788 17.3927 36.75 17.8124 36.75 18.25V38.05Z" fill="#1062D8"/>
<path d="M25.6399 30.7803L30.9861 25.3352C31.2921 25.0245 31.7072 24.85 32.1399 24.85C32.5726 24.85 32.9876 25.0245 33.2936 25.3352C33.5996 25.646 33.7715 26.0674 33.7715 26.5068C33.7715 26.9461 33.5996 27.3675 33.2936 27.6783L26.7936 34.2782C26.6426 34.4329 26.4629 34.5557 26.2648 34.6394C26.0668 34.7232 25.8544 34.7663 25.6399 34.7663C25.4254 34.7663 25.213 34.7232 25.015 34.6394C24.8169 34.5557 24.6372 34.4329 24.4861 34.2782L21.2361 30.9783C20.9301 30.6675 20.7582 30.2461 20.7582 29.8067C20.7582 29.3674 20.9301 28.946 21.2361 28.6353C21.5421 28.3245 21.9572 28.15 22.3899 28.15C22.8226 28.15 23.2376 28.3245 23.5436 28.6353L25.6399 30.7803Z" fill="#1062D8"/>
</svg>
