<svg width="29" height="29" viewBox="0 0 29 29" fill="none" xmlns="http://www.w3.org/2000/svg">
<path d="M19.3052 4.85644L23.3907 8.94195M15.6944 27.2444H27.25M1.25 27.245L1.31854 26.7652C1.56108 25.0674 1.68235 24.2186 1.95819 23.426C2.20297 22.7228 2.53735 22.054 2.95309 21.4362C3.4216 20.74 4.02794 20.1337 5.24063 18.921L22.0655 2.09614C23.1937 0.967956 25.0228 0.967953 26.151 2.09613C27.2792 3.22432 27.2792 5.05346 26.151 6.18164L9.01741 23.3152C7.91726 24.4154 7.36718 24.9655 6.74062 25.4029C6.18448 25.7912 5.58467 26.1129 4.95352 26.3613C4.24247 26.6412 3.47987 26.7951 1.95479 27.1028L1.25 27.245Z" stroke="white" stroke-width="2.5" stroke-linecap="round" stroke-linejoin="round"/>
</svg>
