<svg width="25" height="25" viewBox="0 0 25 25" fill="none" xmlns="http://www.w3.org/2000/svg">
<path d="M4.1875 9.125C3.63522 9.125 3.1875 9.57272 3.1875 10.125C3.1875 10.6773 3.63522 11.125 4.1875 11.125V10.125V9.125ZM20.8125 11.125C21.3648 11.125 21.8125 10.6773 21.8125 10.125C21.8125 9.57272 21.3648 9.125 20.8125 9.125V10.125V11.125ZM4.28723 14.4687C3.73494 14.4687 3.28723 14.9164 3.28723 15.4687C3.28723 16.0209 3.73494 16.4687 4.28723 16.4687V15.4687V14.4687ZM20.9122 16.4687C21.4645 16.4687 21.9122 16.0209 21.9122 15.4687C21.9122 14.9164 21.4645 14.4687 20.9122 14.4687V15.4687V16.4687ZM22 12.5H21C21 17.1944 17.1944 21 12.5 21V22V23C18.299 23 23 18.299 23 12.5H22ZM12.5 22V21C7.80558 21 4 17.1944 4 12.5H3H2C2 18.299 6.70101 23 12.5 23V22ZM3 12.5H4C4 7.80558 7.80558 4 12.5 4V3V2C6.70101 2 2 6.70101 2 12.5H3ZM12.5 3V4C17.1944 4 21 7.80558 21 12.5H22H23C23 6.70101 18.299 2 12.5 2V3ZM12.5 22V21C12.257 21 11.9467 20.8916 11.5773 20.5345C11.203 20.1727 10.8203 19.6009 10.4772 18.8167C9.79239 17.2513 9.34375 15.0188 9.34375 12.5H8.34375H7.34375C7.34375 15.2279 7.82552 17.7454 8.64493 19.6183C9.05398 20.5533 9.56688 21.3727 10.1871 21.9724C10.8122 22.5767 11.5953 23 12.5 23V22ZM8.34375 12.5H9.34375C9.34375 9.98121 9.79239 7.7487 10.4772 6.1833C10.8203 5.39912 11.203 4.82731 11.5773 4.46551C11.9467 4.10836 12.257 4 12.5 4V3V2C11.5953 2 10.8122 2.42331 10.1871 3.02761C9.56688 3.62726 9.05398 4.44669 8.64493 5.38167C7.82552 7.2546 7.34375 9.77208 7.34375 12.5H8.34375ZM12.5 22V23C13.4047 23 14.1878 22.5767 14.8129 21.9724C15.4331 21.3727 15.946 20.5533 16.3551 19.6183C17.1745 17.7454 17.6562 15.2279 17.6562 12.5H16.6562H15.6562C15.6562 15.0188 15.2076 17.2513 14.5228 18.8167C14.1797 19.6009 13.797 20.1727 13.4227 20.5345C13.0533 20.8916 12.743 21 12.5 21V22ZM16.6562 12.5H17.6562C17.6562 9.77208 17.1745 7.2546 16.3551 5.38167C15.946 4.44669 15.4331 3.62726 14.8129 3.02761C14.1878 2.42331 13.4047 2 12.5 2V3V4C12.743 4 13.0533 4.10836 13.4227 4.46551C13.797 4.82731 14.1797 5.39912 14.5228 6.1833C15.2076 7.7487 15.6562 9.98121 15.6562 12.5H16.6562ZM4.1875 10.125V11.125H20.8125V10.125V9.125H4.1875V10.125ZM4.28723 15.4687V16.4687H20.9122V15.4687V14.4687H4.28723V15.4687Z" fill="white"/>
</svg>
