<svg width="21" height="21" viewBox="0 0 21 21" fill="none" xmlns="http://www.w3.org/2000/svg">
<g clip-path="url(#clip0_289_8951)">
<path d="M4.93422 11.4321C4.99719 11.4318 4.99719 11.4318 5.06144 11.4314C5.19987 11.4309 5.3383 11.4309 5.47673 11.431C5.57317 11.4308 5.6696 11.4307 5.76604 11.4305C5.96804 11.4302 6.17005 11.4302 6.37205 11.4304C6.6307 11.4306 6.88933 11.4299 7.14798 11.429C7.3471 11.4284 7.54622 11.4283 7.74534 11.4285C7.84069 11.4285 7.93604 11.4282 8.0314 11.4278C8.16481 11.4273 8.2982 11.4276 8.43161 11.4281C8.47084 11.4278 8.51008 11.4274 8.5505 11.4271C8.90301 11.4299 9.13684 11.5273 9.3926 11.7715C9.52023 11.9519 9.56158 12.1045 9.56242 12.3232C9.56266 12.3595 9.56289 12.3959 9.56313 12.4333C9.5632 12.4926 9.5632 12.4926 9.56327 12.5531C9.56348 12.595 9.56368 12.6369 9.56389 12.6801C9.56449 12.8188 9.56477 12.9575 9.56499 13.0961C9.56523 13.1926 9.56547 13.2891 9.5657 13.3855C9.56613 13.5878 9.56637 13.7902 9.56652 13.9925C9.56674 14.2514 9.56773 14.5103 9.56889 14.7692C9.56966 14.9685 9.56987 15.1678 9.56993 15.3671C9.57006 15.4626 9.57039 15.558 9.57093 15.6534C9.57163 15.7871 9.57155 15.9208 9.57128 16.0545C9.57166 16.0937 9.57204 16.133 9.57243 16.1734C9.57072 16.4479 9.53906 16.6898 9.35703 16.9084C9.32986 16.9305 9.30268 16.9526 9.27468 16.9753C9.24772 16.9981 9.22075 17.0208 9.19297 17.0442C8.96053 17.2017 8.74804 17.1977 8.47571 17.1974C8.433 17.1977 8.39029 17.198 8.34629 17.1983C8.20517 17.1991 8.06405 17.1992 7.92293 17.1993C7.82469 17.1996 7.72646 17.1999 7.62822 17.2001C7.42228 17.2006 7.21634 17.2008 7.0104 17.2007C6.74684 17.2007 6.48329 17.2018 6.21973 17.2033C6.0168 17.2042 5.81388 17.2043 5.61096 17.2043C5.51381 17.2044 5.41666 17.2048 5.31951 17.2054C5.18345 17.2062 5.04742 17.206 4.91135 17.2055C4.87143 17.2059 4.83152 17.2064 4.79039 17.2069C4.50051 17.2042 4.28148 17.1413 4.05961 16.9499C4.04131 16.927 4.02302 16.9041 4.00417 16.8805C3.98524 16.8577 3.96632 16.8349 3.94682 16.8114C3.79728 16.5824 3.80231 16.3701 3.80256 16.1046C3.80228 16.0619 3.80201 16.0192 3.80172 15.9752C3.80095 15.834 3.80079 15.6929 3.8007 15.5518C3.80043 15.4536 3.80016 15.3553 3.79987 15.2571C3.79938 15.0511 3.79923 14.8452 3.79928 14.6393C3.79928 14.3757 3.79816 14.1122 3.79675 13.8486C3.79584 13.6457 3.79567 13.4428 3.79572 13.2398C3.79562 13.1427 3.79526 13.0455 3.79462 12.9484C3.79382 12.8123 3.79406 12.6763 3.79455 12.5402C3.79409 12.5003 3.79363 12.4604 3.79315 12.4193C3.79582 12.1291 3.85965 11.9121 4.04871 11.6885C4.07124 11.6702 4.09376 11.6519 4.11697 11.633C4.13928 11.6141 4.16159 11.5952 4.18458 11.5757C4.4232 11.4276 4.66292 11.4314 4.93422 11.4321ZM5.74221 13.3711C5.74221 13.9937 5.74221 14.6163 5.74221 15.2578C6.36483 15.2578 6.98744 15.2578 7.62893 15.2578C7.62893 14.6352 7.62893 14.0126 7.62893 13.3711C7.00631 13.3711 6.38369 13.3711 5.74221 13.3711Z" fill="white"/>
<path d="M4.89543 3.8025C4.93814 3.80222 4.98085 3.80195 5.02485 3.80166C5.16597 3.80088 5.30709 3.80072 5.44821 3.80064C5.54645 3.80037 5.64468 3.8001 5.74292 3.79981C5.94886 3.79932 6.1548 3.79917 6.36074 3.79921C6.6243 3.79922 6.88785 3.7981 7.15141 3.79669C7.35433 3.79578 7.55725 3.79561 7.76018 3.79565C7.85733 3.79556 7.95448 3.7952 8.05163 3.79456C8.18769 3.79376 8.32372 3.79399 8.45979 3.79449C8.4997 3.79403 8.53962 3.79357 8.58075 3.79309C8.87086 3.79576 9.08794 3.85959 9.31153 4.04865C9.32982 4.07118 9.34812 4.0937 9.36697 4.1169C9.39536 4.15037 9.39536 4.15037 9.42432 4.18452C9.5724 4.42314 9.56863 4.66286 9.56793 4.93416C9.56814 4.97614 9.56835 5.01812 9.56856 5.06138C9.56913 5.19981 9.56909 5.33823 9.569 5.47667C9.56916 5.57311 9.56934 5.66954 9.56953 5.76598C9.56984 5.96798 9.56983 6.16999 9.56961 6.37199C9.56937 6.63064 9.57007 6.88927 9.57102 7.14791C9.57162 7.34704 9.57166 7.54616 9.57153 7.74528C9.57155 7.84063 9.57177 7.93598 9.57218 8.03133C9.57269 8.16475 9.57241 8.29813 9.57193 8.43155C9.57225 8.47078 9.57256 8.51002 9.57288 8.55044C9.57045 8.86072 9.5065 9.09869 9.29234 9.33754C9.04036 9.55476 8.74237 9.58044 8.4236 9.57718C8.38166 9.5774 8.33973 9.57762 8.29653 9.57785C8.15895 9.57836 8.02141 9.57769 7.88383 9.57695C7.78767 9.57696 7.69151 9.57702 7.59535 9.57713C7.39425 9.57719 7.19316 9.57667 6.99206 9.57574C6.73475 9.57457 6.47746 9.57469 6.22016 9.57521C6.02174 9.57549 5.82332 9.57517 5.6249 9.57467C5.53004 9.57448 5.43518 9.57447 5.34032 9.57463C5.20761 9.57475 5.07494 9.57407 4.94224 9.57317C4.90334 9.57336 4.86445 9.57354 4.82437 9.57373C4.55116 9.57069 4.30905 9.53801 4.09165 9.35697C4.06955 9.3298 4.04745 9.30262 4.02468 9.27462C4.00195 9.24766 3.97921 9.22069 3.95579 9.19291C3.79828 8.96047 3.80231 8.74797 3.80256 8.47565C3.80228 8.43294 3.80201 8.39023 3.80172 8.34623C3.80095 8.20511 3.80079 8.06399 3.8007 7.92287C3.80043 7.82463 3.80016 7.7264 3.79987 7.62816C3.79938 7.42222 3.79923 7.21628 3.79928 7.01034C3.79928 6.74677 3.79816 6.48323 3.79675 6.21967C3.79584 6.01674 3.79567 5.81382 3.79572 5.6109C3.79562 5.51375 3.79526 5.4166 3.79462 5.31945C3.79382 5.18338 3.79406 5.04736 3.79455 4.91129C3.79409 4.87137 3.79363 4.83145 3.79315 4.79033C3.79582 4.50045 3.8587 4.28142 4.05016 4.05955C4.07305 4.04125 4.09594 4.02296 4.11953 4.00411C4.14232 3.98518 4.1651 3.96626 4.18858 3.94675C4.41766 3.79721 4.62994 3.80225 4.89543 3.8025ZM5.74221 5.74215C5.74221 6.36477 5.74221 6.98738 5.74221 7.62887C6.36483 7.62887 6.98744 7.62887 7.62893 7.62887C7.62893 7.00625 7.62893 6.38363 7.62893 5.74215C7.00631 5.74215 6.38369 5.74215 5.74221 5.74215Z" fill="white"/>
<path d="M12.5243 3.8025C12.567 3.80222 12.6097 3.80195 12.6537 3.80166C12.7948 3.80088 12.936 3.80072 13.0771 3.80064C13.1753 3.80037 13.2736 3.8001 13.3718 3.79981C13.5777 3.79932 13.7837 3.79917 13.9896 3.79921C14.2532 3.79922 14.5167 3.7981 14.7803 3.79669C14.9832 3.79578 15.1861 3.79561 15.389 3.79565C15.4862 3.79556 15.5833 3.7952 15.6805 3.79456C15.8166 3.79376 15.9526 3.79399 16.0887 3.79449C16.1286 3.79403 16.1685 3.79357 16.2096 3.79309C16.4995 3.79576 16.7185 3.85864 16.9404 4.05009C16.9678 4.08443 16.9678 4.08443 16.9958 4.11947C17.0242 4.15365 17.0242 4.15365 17.0532 4.18852C17.2027 4.41759 17.1977 4.62988 17.1974 4.89537C17.1977 4.93808 17.198 4.98079 17.1983 5.02479C17.1991 5.16591 17.1992 5.30703 17.1993 5.44815C17.1996 5.54639 17.1999 5.64462 17.2001 5.74286C17.2006 5.9488 17.2008 6.15474 17.2007 6.36068C17.2007 6.62424 17.2018 6.88779 17.2033 7.15135C17.2042 7.35427 17.2043 7.55719 17.2043 7.76012C17.2044 7.85727 17.2048 7.95442 17.2054 8.05157C17.2062 8.18763 17.206 8.32366 17.2055 8.45972C17.2059 8.49964 17.2064 8.53956 17.2069 8.58069C17.2042 8.8708 17.1404 9.08788 16.9513 9.31147C16.9175 9.33891 16.9175 9.33891 16.883 9.36691C16.8607 9.38583 16.8384 9.40476 16.8154 9.42426C16.5774 9.572 16.3378 9.56878 16.0671 9.56852C16.0252 9.56879 15.9834 9.56907 15.9403 9.56935C15.8022 9.57013 15.6642 9.57029 15.5262 9.57038C15.4299 9.57064 15.3337 9.57092 15.2374 9.57121C15.0358 9.5717 14.8341 9.57185 14.6325 9.5718C14.3746 9.57179 14.1167 9.57291 13.8588 9.57433C13.66 9.57524 13.4612 9.57541 13.2625 9.57536C13.1674 9.57546 13.0723 9.57582 12.9773 9.57646C12.8441 9.57726 12.7109 9.57702 12.5777 9.57653C12.5388 9.57699 12.4998 9.57745 12.4597 9.57793C12.1723 9.57523 11.9121 9.52081 11.6941 9.32196C11.4472 9.05872 11.4312 8.78357 11.4321 8.4375C11.4319 8.39559 11.4317 8.35368 11.4314 8.31049C11.4309 8.17226 11.4309 8.03403 11.431 7.89579C11.4308 7.79945 11.4307 7.70311 11.4305 7.60678C11.4302 7.40494 11.4302 7.20311 11.4304 7.00128C11.4306 6.743 11.4299 6.48474 11.429 6.22647C11.4284 6.02752 11.4283 5.82858 11.4285 5.62963C11.4285 5.53443 11.4282 5.43922 11.4278 5.34402C11.4273 5.21071 11.4276 5.07743 11.4281 4.94413C11.4278 4.90504 11.4274 4.86595 11.4271 4.82568C11.4293 4.55162 11.4613 4.30973 11.643 4.09159C11.6702 4.06949 11.6973 4.04739 11.7253 4.02462C11.7523 4.00188 11.7793 3.97915 11.807 3.95573C12.0395 3.79821 12.252 3.80225 12.5243 3.8025ZM13.3711 5.74215C13.3711 6.36477 13.3711 6.98738 13.3711 7.62887C13.9937 7.62887 14.6163 7.62887 15.2578 7.62887C15.2578 7.00625 15.2578 6.38363 15.2578 5.74215C14.6352 5.74215 14.0126 5.74215 13.3711 5.74215Z" fill="white"/>
<path d="M1.56868 13.5136C1.78781 13.6898 1.90593 13.8823 1.9391 14.1654C1.94353 14.2744 1.94423 14.3828 1.94351 14.4919C1.94373 14.5331 1.94395 14.5742 1.94417 14.6166C1.94457 14.7054 1.9447 14.7942 1.94457 14.883C1.94438 15.0237 1.94496 15.1644 1.94573 15.3051C1.94749 15.6544 1.94795 16.0038 1.94845 16.3532C1.94892 16.6487 1.94989 16.9443 1.95151 17.2399C1.95207 17.3782 1.9519 17.5165 1.9517 17.6548C1.95209 17.74 1.9525 17.8252 1.95296 17.9103C1.95271 17.9485 1.95245 17.9867 1.95219 18.0261C1.95491 18.3156 1.99663 18.5494 2.1892 18.7774C2.39995 18.953 2.57144 19.0361 2.84519 19.0366C2.89857 19.0368 2.89857 19.0368 2.95302 19.0371C2.99174 19.0371 3.03045 19.037 3.07034 19.037C3.11138 19.0372 3.15242 19.0373 3.1947 19.0375C3.28381 19.0378 3.37293 19.038 3.46205 19.0381C3.60327 19.0384 3.74449 19.0391 3.88571 19.0398C4.28725 19.042 4.68878 19.0439 5.09032 19.0446C5.33598 19.045 5.58163 19.0462 5.82728 19.0479C5.92073 19.0484 6.01419 19.0486 6.10764 19.0485C6.23869 19.0484 6.36971 19.0493 6.50076 19.0505C6.53906 19.0502 6.57736 19.0499 6.61682 19.0497C6.90153 19.0537 7.1572 19.1111 7.37677 19.3025C7.57658 19.5089 7.65464 19.7525 7.68529 20.0335C7.65194 20.3503 7.57809 20.6153 7.34179 20.8359C7.08903 21.0082 6.8555 21.0236 6.5563 21.0212C6.51157 21.0215 6.46684 21.0218 6.42075 21.0221C6.27348 21.0228 6.12625 21.0223 5.97898 21.0217C5.87599 21.0219 5.773 21.022 5.67002 21.0222C5.45426 21.0225 5.2385 21.0221 5.02274 21.0213C4.80212 21.0206 4.58151 21.0205 4.36088 21.0213C4.0935 21.0223 3.82612 21.0224 3.55873 21.0219C3.45732 21.0218 3.35591 21.0219 3.2545 21.0223C2.24161 21.0253 2.24161 21.0253 1.76366 20.8359C1.73442 20.825 1.70517 20.8142 1.67504 20.803C0.971556 20.5235 0.45364 19.923 0.155148 19.2404C0.0252197 18.892 -0.0182286 18.5516 -0.0165825 18.1822C-0.016864 18.137 -0.0171455 18.0919 -0.0174355 18.0454C-0.0181793 17.8978 -0.0180283 17.7503 -0.0177941 17.6027C-0.0179814 17.4994 -0.0181991 17.396 -0.0184456 17.2927C-0.0188108 17.0769 -0.0187235 16.8611 -0.0183048 16.6452C-0.0178329 16.3965 -0.0184136 16.1478 -0.0195105 15.899C-0.0205312 15.6585 -0.0206314 15.4179 -0.0203672 15.1774C-0.0203609 15.0756 -0.0206082 14.9737 -0.0211172 14.8719C-0.0217288 14.7295 -0.0212909 14.5873 -0.0205879 14.4449C-0.0209845 14.4032 -0.021381 14.3614 -0.0217896 14.3184C-0.0187475 14.0236 0.0374323 13.796 0.240316 13.5752C0.648557 13.2833 1.13705 13.2299 1.56868 13.5136Z" fill="white"/>
<path d="M2.81779 -0.0165215C2.86294 -0.016803 2.90809 -0.0170845 2.95461 -0.0173745C3.10216 -0.0181182 3.2497 -0.0179672 3.39725 -0.0177331C3.50059 -0.0179204 3.60394 -0.0181381 3.70728 -0.0183846C3.92309 -0.0187498 4.1389 -0.0186625 4.35471 -0.0182438C4.60346 -0.0177719 4.85218 -0.0183526 5.10092 -0.0194495C5.34147 -0.0204701 5.58201 -0.0205703 5.82256 -0.020306C5.92441 -0.0202998 6.02625 -0.0205472 6.12809 -0.0210563C6.27041 -0.0216679 6.41269 -0.0212299 6.55501 -0.0205269C6.59678 -0.0209234 6.63855 -0.02132 6.68159 -0.0217285C6.97634 -0.0186865 7.20401 0.0374933 7.42479 0.240377C7.61965 0.512947 7.69984 0.766478 7.66993 1.10747C7.6138 1.38912 7.48847 1.62583 7.25977 1.80474C7.00168 1.92179 6.78935 1.94542 6.50803 1.94357C6.4669 1.94379 6.42578 1.94401 6.38341 1.94423C6.29461 1.94463 6.20581 1.94476 6.11701 1.94463C5.97629 1.94445 5.8356 1.94502 5.69489 1.94579C5.34553 1.94756 4.99617 1.94801 4.64681 1.94851C4.35123 1.94898 4.05566 1.94995 3.76009 1.95157C3.62177 1.95213 3.48346 1.95196 3.34514 1.95176C3.25997 1.95215 3.1748 1.95256 3.08963 1.95302C3.05144 1.95277 3.01325 1.95252 2.9739 1.95226C2.68438 1.95497 2.45058 1.99669 2.22254 2.18926C2.04691 2.40001 1.96383 2.57151 1.96337 2.84525C1.9632 2.88084 1.96304 2.91642 1.96287 2.95308C1.9629 3.01116 1.9629 3.01116 1.96294 3.07041C1.96279 3.11144 1.96265 3.15248 1.96251 3.19476C1.9622 3.28387 1.96198 3.37299 1.96184 3.46211C1.96154 3.60333 1.9609 3.74455 1.96014 3.88577C1.95799 4.28731 1.95602 4.68884 1.95539 5.09038C1.95497 5.33604 1.95377 5.58169 1.95205 5.82734C1.95155 5.9208 1.95134 6.01425 1.95143 6.1077C1.95152 6.23876 1.95061 6.36977 1.94948 6.50082C1.94988 6.55827 1.94988 6.55827 1.9503 6.61688C1.94627 6.90159 1.88882 7.15726 1.69743 7.37684C1.49102 7.57664 1.24742 7.6547 0.966435 7.68535C0.649614 7.652 0.384618 7.57815 0.164067 7.34185C-0.00874967 7.08868 -0.0234186 6.85478 -0.0205732 6.55506C-0.0209056 6.48777 -0.0209056 6.48777 -0.0212447 6.41911C-0.0217558 6.27145 -0.021081 6.12382 -0.0203429 5.97616C-0.0203492 5.87297 -0.0204104 5.76979 -0.0205237 5.6666C-0.0205805 5.4505 -0.0200842 5.2344 -0.0191312 5.0183C-0.0180422 4.76965 -0.0179676 4.52103 -0.01845 4.27238C-0.0188948 4.03192 -0.0186316 3.79147 -0.0180579 3.55101C-0.0178736 3.4493 -0.0178583 3.34759 -0.0180197 3.24589C-0.0181401 3.10319 -0.0174574 2.96052 -0.0165677 2.81783C-0.0167524 2.7764 -0.016937 2.73496 -0.0171273 2.69227C-0.0128819 2.27901 0.0784988 1.88636 0.266606 1.51763C0.280568 1.49009 0.294529 1.46254 0.308914 1.43417C0.6466 0.80184 1.26765 0.300362 1.9522 0.090443C2.2456 0.0122767 2.51486 -0.0178712 2.81779 -0.0165215Z" fill="white"/>
<path d="M20.665 13.4955C20.8597 13.6414 20.9799 13.85 21.0152 14.0892C21.0212 14.2077 21.0222 14.3251 21.0212 14.4437C21.0215 14.4885 21.0218 14.5332 21.0221 14.5793C21.0228 14.7265 21.0223 14.8738 21.0218 15.021C21.0219 15.124 21.022 15.227 21.0222 15.33C21.0225 15.5458 21.0222 15.7615 21.0214 15.9773C21.0206 16.1979 21.0206 16.4185 21.0214 16.6391C21.0223 16.9065 21.0225 17.1739 21.0219 17.4413C21.0218 17.5427 21.022 17.6441 21.0223 17.7455C21.0253 18.7584 21.0253 18.7584 20.8359 19.2364C20.8251 19.2656 20.8142 19.2948 20.8031 19.325C20.5235 20.0285 19.9231 20.5464 19.2404 20.8449C18.892 20.9748 18.5516 21.0183 18.1822 21.0166C18.137 21.0169 18.0919 21.0172 18.0454 21.0175C17.8978 21.0182 17.7503 21.0181 17.6027 21.0178C17.4994 21.018 17.396 21.0182 17.2927 21.0185C17.0769 21.0188 16.8611 21.0187 16.6453 21.0183C16.3965 21.0179 16.1478 21.0184 15.8991 21.0195C15.6585 21.0206 15.418 21.0207 15.1774 21.0204C15.0756 21.0204 14.9737 21.0206 14.8719 21.0211C14.7296 21.0218 14.5873 21.0213 14.445 21.0206C14.4032 21.021 14.3614 21.0214 14.3184 21.0218C14.0236 21.0188 13.796 20.9626 13.5752 20.7597C13.3803 20.4871 13.3001 20.2336 13.3301 19.8926C13.3862 19.611 13.5115 19.3743 13.7402 19.1953C13.9983 19.0783 14.2106 19.0547 14.492 19.0565C14.5536 19.0562 14.5536 19.0562 14.6166 19.0559C14.7054 19.0555 14.7942 19.0553 14.883 19.0555C15.0237 19.0556 15.1644 19.0551 15.3051 19.0543C15.6545 19.0525 16.0038 19.0521 16.3532 19.0516C16.6488 19.0511 16.9443 19.0501 17.2399 19.0485C17.3782 19.048 17.5165 19.0481 17.6548 19.0483C17.74 19.0479 17.8252 19.0475 17.9103 19.0471C17.9485 19.0473 17.9867 19.0476 18.0261 19.0478C18.3156 19.0451 18.5494 19.0034 18.7774 18.8108C18.9531 18.6001 19.0362 18.4286 19.0366 18.1548C19.0368 18.1193 19.0369 18.0837 19.0371 18.047C19.0371 18.0083 19.0371 17.9696 19.037 17.9297C19.0372 17.8886 19.0373 17.8476 19.0375 17.8053C19.0378 17.7162 19.038 17.6271 19.0381 17.538C19.0384 17.3968 19.0391 17.2555 19.0398 17.1143C19.042 16.7128 19.044 16.3112 19.0446 15.9097C19.045 15.664 19.0462 15.4184 19.0479 15.1727C19.0484 15.0793 19.0486 14.9858 19.0486 14.8924C19.0485 14.7613 19.0494 14.6303 19.0505 14.4993C19.0502 14.461 19.05 14.4227 19.0497 14.3832C19.0537 14.0985 19.1112 13.8428 19.3026 13.6233C19.6765 13.2613 20.2223 13.2463 20.665 13.4955Z" fill="white"/>
<path d="M14.4437 -0.0211852C14.4884 -0.0214727 14.5332 -0.0217602 14.5792 -0.0220564C14.7265 -0.022776 14.8737 -0.022301 15.021 -0.021746C15.124 -0.0218566 15.227 -0.0220159 15.33 -0.0222216C15.5457 -0.0224633 15.7615 -0.0221287 15.9772 -0.0213454C16.1979 -0.0205537 16.4185 -0.0205494 16.6391 -0.0213454C16.9065 -0.0223016 17.1739 -0.0224431 17.4413 -0.0219106C17.5427 -0.0218018 17.6441 -0.021933 17.7455 -0.0223174C18.7584 -0.0253128 18.7584 -0.0253128 19.2363 0.164106C19.2802 0.180369 19.2802 0.180369 19.3249 0.196961C20.0284 0.476538 20.5464 1.07697 20.8448 1.75964C20.9748 2.10803 21.0182 2.44839 21.0166 2.81783C21.0169 2.86298 21.0171 2.90813 21.0174 2.95464C21.0182 3.1022 21.018 3.24973 21.0178 3.39729C21.018 3.50063 21.0182 3.60398 21.0184 3.70732C21.0188 3.92313 21.0187 4.13894 21.0183 4.35475C21.0178 4.60349 21.0184 4.85222 21.0195 5.10096C21.0205 5.34151 21.0206 5.58205 21.0204 5.8226C21.0204 5.92445 21.0206 6.02629 21.0211 6.12813C21.0217 6.27045 21.0213 6.41273 21.0206 6.55505C21.0212 6.61771 21.0212 6.61771 21.0218 6.68163C21.0187 6.97638 20.9626 7.20405 20.7597 7.42483C20.4871 7.61969 20.2336 7.69988 19.8926 7.66997C19.6109 7.61384 19.3742 7.48851 19.1953 7.25981C19.0783 7.00172 19.0546 6.78939 19.0565 6.50807C19.0563 6.46694 19.056 6.42582 19.0558 6.38345C19.0554 6.29465 19.0553 6.20584 19.0554 6.11704C19.0556 5.97633 19.055 5.83564 19.0543 5.69493C19.0525 5.34557 19.052 4.99621 19.0515 4.64685C19.0511 4.35127 19.0501 4.0557 19.0485 3.76013C19.0479 3.62181 19.0481 3.4835 19.0483 3.34518C19.0479 3.26001 19.0475 3.17484 19.047 3.08967C19.0473 3.05148 19.0475 3.01329 19.0478 2.97394C19.0451 2.68442 19.0034 2.45062 18.8108 2.22258C18.6 2.04695 18.4285 1.96387 18.1548 1.96341C18.1192 1.96324 18.0836 1.96308 18.047 1.96291C18.0083 1.96293 17.9695 1.96295 17.9296 1.96298C17.8886 1.96283 17.8476 1.96269 17.8053 1.96254C17.7162 1.96224 17.6271 1.96202 17.5379 1.96188C17.3967 1.96158 17.2555 1.96094 17.1143 1.96018C16.7127 1.95803 16.3112 1.95606 15.9097 1.95543C15.664 1.95501 15.4184 1.95381 15.1727 1.95209C15.0793 1.95159 14.9858 1.95137 14.8924 1.95147C14.7613 1.95156 14.6303 1.95065 14.4992 1.94952C14.4609 1.94979 14.4226 1.95006 14.3832 1.95034C14.0985 1.94631 13.8428 1.88886 13.6232 1.69747C13.4234 1.49105 13.3453 1.24746 13.3147 0.966474C13.348 0.649653 13.4219 0.384657 13.6582 0.164106C13.911 -0.00822775 14.1445 -0.0235715 14.4437 -0.0211852Z" fill="white"/>
<path d="M13.4465 15.2505C13.4787 15.2502 13.511 15.25 13.5442 15.2497C13.6507 15.2489 13.7572 15.2484 13.8638 15.248C13.9003 15.2478 13.9368 15.2476 13.9744 15.2475C14.1676 15.2466 14.3608 15.246 14.554 15.2457C14.753 15.2452 14.952 15.2438 15.1509 15.2422C15.3044 15.2411 15.458 15.2407 15.6115 15.2406C15.6848 15.2404 15.7581 15.2399 15.8314 15.2392C16.6553 15.2311 16.6553 15.2311 16.9335 15.4936C17.1831 15.7597 17.208 16.0228 17.1982 16.3786C17.1751 16.6538 17.0817 16.8117 16.8805 16.9958C16.6675 17.1727 16.4617 17.1977 16.1912 17.1974C16.1577 17.1977 16.1242 17.198 16.0897 17.1982C15.9792 17.199 15.8687 17.1992 15.7582 17.1993C15.6811 17.1995 15.604 17.1998 15.5269 17.2001C15.3654 17.2006 15.2039 17.2007 15.0423 17.2007C14.8359 17.2007 14.6294 17.2018 14.423 17.2032C14.2638 17.2041 14.1045 17.2043 13.9453 17.2043C13.8692 17.2043 13.7931 17.2047 13.717 17.2053C13.6103 17.2062 13.5037 17.2059 13.397 17.2054C13.3659 17.2059 13.3348 17.2063 13.3028 17.2068C13.0162 17.2035 12.8042 17.1088 12.5995 16.9086C12.4019 16.6151 12.3486 16.3494 12.3867 15.996C12.4411 15.7634 12.5409 15.5547 12.7424 15.4154C12.9827 15.2716 13.1714 15.2515 13.4465 15.2505Z" fill="white"/>
<path d="M12.9289 11.518C13.1411 11.6585 13.2938 11.8586 13.3711 12.0996C13.3798 12.2174 13.3846 12.3312 13.3849 12.449C13.3852 12.4825 13.3854 12.5161 13.3857 12.5506C13.3861 12.6214 13.3863 12.6922 13.3863 12.7629C13.3865 12.8704 13.388 12.9778 13.3895 13.0853C13.3898 13.1544 13.39 13.2234 13.39 13.2924C13.3906 13.3242 13.3912 13.3559 13.3918 13.3886C13.3896 13.6548 13.311 13.8682 13.134 14.0693C13.1107 14.0876 13.0875 14.1059 13.0635 14.1247C13.0402 14.1437 13.017 14.1626 12.993 14.1821C12.7632 14.3403 12.5215 14.3732 12.2456 14.3454C11.9217 14.2834 11.7176 14.1249 11.5254 13.8633C11.4339 13.6855 11.4302 13.5151 11.4296 13.3192C11.4293 13.2866 11.4291 13.2541 11.4288 13.2206C11.4284 13.1519 11.4282 13.0833 11.4282 13.0146C11.428 12.9105 11.4265 12.8065 11.425 12.7025C11.4198 11.9736 11.4198 11.9736 11.678 11.6954C11.9969 11.3902 12.5282 11.3397 12.9289 11.518Z" fill="white"/>
<path d="M15.3472 11.4311C15.3789 11.4309 15.4105 11.4307 15.4431 11.4305C15.5098 11.4303 15.5765 11.4303 15.6431 11.4305C15.7443 11.4306 15.8454 11.4296 15.9466 11.4286C16.0117 11.4285 16.0768 11.4285 16.1419 11.4285C16.1717 11.4281 16.2016 11.4278 16.2323 11.4274C16.4824 11.4296 16.7112 11.4789 16.9084 11.643C16.9305 11.6702 16.9526 11.6974 16.9753 11.7254C16.9981 11.7524 17.0208 11.7793 17.0442 11.8071C17.2325 12.0849 17.2126 12.3927 17.1856 12.7149C17.1202 12.9699 16.9519 13.1471 16.7344 13.2891C16.5528 13.381 16.3793 13.3844 16.1799 13.3849C16.1463 13.3852 16.1128 13.3855 16.0783 13.3858C16.0075 13.3862 15.9367 13.3864 15.866 13.3863C15.7585 13.3865 15.651 13.388 15.5436 13.3896C15.4745 13.3898 15.4055 13.39 15.3365 13.3901C15.2889 13.3909 15.2889 13.3909 15.2403 13.3918C14.974 13.3896 14.7622 13.3103 14.5596 13.1355C14.5413 13.1126 14.523 13.0897 14.5042 13.0661C14.4852 13.0433 14.4663 13.0205 14.4468 12.997C14.2672 12.7219 14.2879 12.4153 14.3145 12.0997C14.379 11.8477 14.5465 11.6614 14.7656 11.5254C14.9607 11.4465 15.1393 11.4308 15.3472 11.4311Z" fill="white"/>
</g>
<defs>
<clipPath id="clip0_289_8951">
<rect width="21" height="21" fill="white"/>
</clipPath>
</defs>
</svg>
