<svg width="35" height="35" viewBox="0 0 35 35" fill="none" xmlns="http://www.w3.org/2000/svg">
<path d="M21.7704 18.3157C22.9034 17.4292 23.7304 16.2135 24.1364 14.8378C24.5423 13.462 24.507 11.9947 24.0353 10.6398C23.5636 9.285 22.6791 8.11005 21.5047 7.27847C20.3303 6.44688 18.9245 6 17.4829 6C16.0412 6 14.6354 6.44688 13.461 7.27847C12.2866 8.11005 11.4021 9.285 10.9304 10.6398C10.4587 11.9947 10.4234 13.462 10.8293 14.8378C11.2353 16.2135 12.0623 17.4292 13.1953 18.3157C11.2538 19.0893 9.55986 20.3723 8.29393 22.028C7.02801 23.6837 6.2376 25.65 6.00697 27.7173C5.99028 27.8682 6.00364 28.021 6.04629 28.1668C6.08895 28.3126 6.16006 28.4486 6.25557 28.567C6.44846 28.8063 6.72902 28.9595 7.03552 28.9931C7.34203 29.0266 7.64937 28.9377 7.88995 28.7458C8.13052 28.554 8.28461 28.275 8.31833 27.9702C8.5721 25.7234 9.64931 23.6484 11.3441 22.1416C13.039 20.6348 15.2326 19.8018 17.506 19.8018C19.7793 19.8018 21.973 20.6348 23.6678 22.1416C25.3626 23.6484 26.4398 25.7234 26.6936 27.9702C26.725 28.2526 26.8605 28.5134 27.074 28.7023C27.2874 28.8912 27.5636 28.9948 27.8493 28.9931H27.9764C28.2794 28.9584 28.5563 28.8061 28.7467 28.5692C28.9372 28.3324 29.0259 28.0303 28.9934 27.7288C28.7617 25.6556 27.967 23.6843 26.6946 22.026C25.4222 20.3678 23.72 19.0852 21.7704 18.3157ZM17.4829 17.4997C16.5686 17.4997 15.6748 17.2301 14.9146 16.7249C14.1544 16.2197 13.5619 15.5017 13.212 14.6617C12.8621 13.8216 12.7706 12.8972 12.949 12.0054C13.1273 11.1136 13.5676 10.2945 14.2141 9.65152C14.8606 9.00857 15.6843 8.57072 16.581 8.39333C17.4777 8.21594 18.4072 8.30698 19.2519 8.65494C20.0966 9.00291 20.8186 9.59216 21.3265 10.3482C21.8345 11.1042 22.1056 11.9931 22.1056 12.9023C22.1056 14.1216 21.6185 15.291 20.7516 16.1532C19.8847 17.0153 18.7089 17.4997 17.4829 17.4997Z" fill="currentColor"/>
</svg>
