<svg width="35" height="35" viewBox="0 0 35 35" fill="none" xmlns="http://www.w3.org/2000/svg">
<path d="M26.5606 7.8962C26.4227 7.78809 26.2614 7.71131 26.0888 7.67149C25.9162 7.63168 25.7366 7.62985 25.5631 7.66613C24.2942 7.92375 22.9843 7.92703 21.714 7.67577C20.4437 7.42452 19.24 6.92405 18.1769 6.20517C17.9781 6.07158 17.7419 6 17.5 6C17.2581 6 17.0219 6.07158 16.8231 6.20517C15.76 6.92405 14.5563 7.42452 13.286 7.67577C12.0157 7.92703 10.7058 7.92375 9.43688 7.66613C9.26343 7.62985 9.0838 7.63168 8.91118 7.67149C8.73856 7.71131 8.57734 7.78809 8.43938 7.8962C8.30161 8.00447 8.19063 8.14127 8.11459 8.29655C8.03856 8.45182 7.9994 8.62163 8.00001 8.79348V17.3637C7.99895 19.013 8.40467 20.6387 9.18339 22.1054C9.96211 23.5721 11.0913 24.8374 12.4769 25.7958L16.8113 28.7867C17.0124 28.9255 17.2531 29 17.5 29C17.7469 29 17.9876 28.9255 18.1887 28.7867L22.5231 25.7958C23.9087 24.8374 25.0379 23.5721 25.8166 22.1054C26.5953 20.6387 27.001 19.013 27 17.3637V8.79348C27.0006 8.62163 26.9614 8.45182 26.8854 8.29655C26.8094 8.14127 26.6984 8.00447 26.5606 7.8962ZM24.625 17.3637C24.6259 18.646 24.3106 19.9101 23.7055 21.0506C23.1003 22.1911 22.2226 23.1751 21.1456 23.9207L17.5 26.44L13.8544 23.9207C12.7774 23.1751 11.8997 22.1911 11.2945 21.0506C10.6894 19.9101 10.3741 18.646 10.375 17.3637V10.1164C12.8645 10.3228 15.3578 9.76326 17.5 8.5174C19.6422 9.76326 22.1355 10.3228 24.625 10.1164V17.3637Z" fill="currentColor"/>
</svg>
