<svg width="35" height="35" viewBox="0 0 35 35" fill="none" xmlns="http://www.w3.org/2000/svg">
<path d="M21.6562 19.8H16.9062C16.5913 19.8 16.2893 19.9212 16.0666 20.1368C15.8439 20.3525 15.7188 20.645 15.7188 20.95C15.7188 21.255 15.8439 21.5475 16.0666 21.7632C16.2893 21.9788 16.5913 22.1 16.9062 22.1H21.6562C21.9712 22.1 22.2732 21.9788 22.4959 21.7632C22.7186 21.5475 22.8438 21.255 22.8438 20.95C22.8438 20.645 22.7186 20.3525 22.4959 20.1368C22.2732 19.9212 21.9712 19.8 21.6562 19.8ZM23.4375 8.3H22.0362C21.7913 7.62892 21.3379 7.04765 20.7384 6.63588C20.1389 6.22411 19.4225 6.002 18.6875 6H16.3125C15.5775 6.002 14.8611 6.22411 14.2616 6.63588C13.6621 7.04765 13.2087 7.62892 12.9638 8.3H11.5625C10.6177 8.3 9.71153 8.66348 9.04343 9.31048C8.37533 9.95748 8 10.835 8 11.75V25.55C8 26.465 8.37533 27.3425 9.04343 27.9895C9.71153 28.6365 10.6177 29 11.5625 29H23.4375C24.3823 29 25.2885 28.6365 25.9566 27.9895C26.6247 27.3425 27 26.465 27 25.55V11.75C27 10.835 26.6247 9.95748 25.9566 9.31048C25.2885 8.66348 24.3823 8.3 23.4375 8.3ZM15.125 9.45C15.125 9.145 15.2501 8.85249 15.4728 8.63683C15.6955 8.42116 15.9976 8.3 16.3125 8.3H18.6875C19.0024 8.3 19.3045 8.42116 19.5272 8.63683C19.7499 8.85249 19.875 9.145 19.875 9.45V10.6H15.125V9.45ZM24.625 25.55C24.625 25.855 24.4999 26.1475 24.2772 26.3632C24.0545 26.5788 23.7524 26.7 23.4375 26.7H11.5625C11.2476 26.7 10.9455 26.5788 10.7228 26.3632C10.5001 26.1475 10.375 25.855 10.375 25.55V11.75C10.375 11.445 10.5001 11.1525 10.7228 10.9368C10.9455 10.7212 11.2476 10.6 11.5625 10.6H12.75V11.75C12.75 12.055 12.8751 12.3475 13.0978 12.5632C13.3205 12.7788 13.6226 12.9 13.9375 12.9H21.0625C21.3774 12.9 21.6795 12.7788 21.9022 12.5632C22.1249 12.3475 22.25 12.055 22.25 11.75V10.6H23.4375C23.7524 10.6 24.0545 10.7212 24.2772 10.9368C24.4999 11.1525 24.625 11.445 24.625 11.75V25.55Z" fill="currentColor"/>
<path d="M16.9062 15.2H21.6562C21.9712 15.2 22.2732 15.3212 22.4959 15.5368C22.7186 15.7525 22.8438 16.045 22.8438 16.35C22.8438 16.655 22.7186 16.9475 22.4959 17.1632C22.2732 17.3788 21.9712 17.5 21.6562 17.5H16.9062C16.5913 17.5 16.2893 17.3788 16.0666 17.1632C15.8439 16.9475 15.7188 16.655 15.7188 16.35C15.7188 16.045 15.8439 15.7525 16.0666 15.5368C16.2893 15.3212 16.5913 15.2 16.9062 15.2Z" fill="currentColor"/>
<path d="M16.9062 15.2H21.6562C21.9712 15.2 22.2732 15.3212 22.4959 15.5368C22.7186 15.7525 22.8438 16.045 22.8438 16.35C22.8438 16.655 22.7186 16.9475 22.4959 17.1632C22.2732 17.3788 21.9712 17.5 21.6562 17.5H16.9062C16.5913 17.5 16.2893 17.3788 16.0666 17.1632C15.8439 16.9475 15.7188 16.655 15.7188 16.35C15.7188 16.045 15.8439 15.7525 16.0666 15.5368C16.2893 15.3212 16.5913 15.2 16.9062 15.2Z" fill="currentColor"/>
<path d="M13.3438 15.2C13.6587 15.2 13.9607 15.3212 14.1834 15.5368C14.4061 15.7525 14.5312 16.045 14.5312 16.35C14.5312 16.655 14.4061 16.9475 14.1834 17.1632C13.9607 17.3788 13.6587 17.5 13.3438 17.5C13.0288 17.5 12.7268 17.3788 12.5041 17.1632C12.2814 16.9475 12.1562 16.655 12.1562 16.35C12.1562 16.045 12.2814 15.7525 12.5041 15.5368C12.7268 15.3212 13.0288 15.2 13.3438 15.2Z" fill="currentColor"/>
<path d="M13.3438 15.2C13.6587 15.2 13.9607 15.3212 14.1834 15.5368C14.4061 15.7525 14.5312 16.045 14.5312 16.35C14.5312 16.655 14.4061 16.9475 14.1834 17.1632C13.9607 17.3788 13.6587 17.5 13.3438 17.5C13.0288 17.5 12.7268 17.3788 12.5041 17.1632C12.2814 16.9475 12.1562 16.655 12.1562 16.35C12.1562 16.045 12.2814 15.7525 12.5041 15.5368C12.7268 15.3212 13.0288 15.2 13.3438 15.2Z" fill="currentColor"/>
<path d="M13.3438 19.8C13.6587 19.8 13.9607 19.9212 14.1834 20.1368C14.4061 20.3525 14.5312 20.645 14.5312 20.95C14.5312 21.255 14.4061 21.5475 14.1834 21.7632C13.9607 21.9788 13.6587 22.1 13.3438 22.1C13.0288 22.1 12.7268 21.9788 12.5041 21.7632C12.2814 21.5475 12.1562 21.255 12.1562 20.95C12.1562 20.645 12.2814 20.3525 12.5041 20.1368C12.7268 19.9212 13.0288 19.8 13.3438 19.8Z" fill="currentColor"/>
<path d="M13.3438 19.8C13.6587 19.8 13.9607 19.9212 14.1834 20.1368C14.4061 20.3525 14.5312 20.645 14.5312 20.95C14.5312 21.255 14.4061 21.5475 14.1834 21.7632C13.9607 21.9788 13.6587 22.1 13.3438 22.1C13.0288 22.1 12.7268 21.9788 12.5041 21.7632C12.2814 21.5475 12.1562 21.255 12.1562 20.95C12.1562 20.645 12.2814 20.3525 12.5041 20.1368C12.7268 19.9212 13.0288 19.8 13.3438 19.8Z" fill="currentColor"/>
</svg>
