<svg width="52" height="52" viewBox="0 0 52 52" fill="none" xmlns="http://www.w3.org/2000/svg">
<g clip-path="url(#clip0_294_12215)">
<path d="M51 26C51 39.8071 39.8071 51 26 51C12.1929 51 1 39.8071 1 26C1 12.1929 12.1929 1 26 1C39.8071 1 51 12.1929 51 26Z" fill="#E7F0FD"/>
<path d="M30.4492 33C36.9736 33 42.3296 37.9986 42.8984 44.375C38.443 48.4868 32.4901 51 25.9492 51C19.4084 51 13.4554 48.4868 9 44.375C9.56881 37.9986 14.9249 33 21.4492 33H30.4492Z" fill="#0E336C"/>
<path d="M21 30C21 28.3431 22.3431 27 24 27H28C29.6569 27 31 28.3431 31 30V34.1459C31 35.2822 30.358 36.321 29.3416 36.8292L27.3416 37.8292C26.4971 38.2515 25.5029 38.2515 24.6584 37.8292L22.6584 36.8292C21.642 36.321 21 35.2822 21 34.1459V30Z" fill="white"/>
<path d="M36 23C36 29.0751 31.5228 34 26 34C20.4772 34 16 29.0751 16 23C16 16.9249 20.4772 12 26 12C31.5228 12 36 16.9249 36 23Z" fill="white"/>
<path d="M34 23C34 17.8458 30.2432 14 26 14C21.7568 14 18 17.8458 18 23C18 28.1542 21.7568 32 26 32V34C20.4772 34 16 29.0751 16 23C16 16.9249 20.4772 12 26 12C31.5228 12 36 16.9249 36 23C36 29.0751 31.5228 34 26 34V32C30.2432 32 34 28.1542 34 23Z" fill="#0E336C"/>
<path d="M18.8493 24.0498L17.3636 24.134C17.3636 20.4673 18.6807 13 25.767 13C32.8532 13 34.481 20.3333 34.6364 24H33.2036C32.6791 24 32.2518 23.5929 32.1506 23.0782C31.7419 21.0009 30.2896 18.5 25.767 18.5C21.2097 18.5 20.1251 21.0393 19.8196 23.1258C19.7467 23.6234 19.3514 24.0213 18.8493 24.0498Z" fill="#0E336C"/>
<path d="M51 26C51 12.1929 39.8071 1 26 1C12.1929 1 1 12.1929 1 26C1 39.8071 12.1929 51 26 51C39.8071 51 51 39.8071 51 26ZM52 26C52 40.3594 40.3594 52 26 52C11.6406 52 0 40.3594 0 26C0 11.6406 11.6406 0 26 0C40.3594 0 52 11.6406 52 26Z" fill="#D0DDF7"/>
</g>
<defs>
<clipPath id="clip0_294_12215">
<rect width="52" height="52" fill="white"/>
</clipPath>
</defs>
</svg>
