<svg width="44" height="21" viewBox="0 0 44 21" fill="none" xmlns="http://www.w3.org/2000/svg">
<rect x="0.575472" y="0.575472" width="42.8491" height="19.8491" rx="9.78302" stroke="#F88526" stroke-width="1.15094"/>
<path d="M11.1481 8.19675C11.1443 8.82243 11.2324 9.42937 11.4122 10.0176C11.5921 10.602 11.8637 11.1266 12.2271 11.5911C12.5905 12.0557 13.0364 12.4154 13.5646 12.6701L12.6992 13.8166C12.1672 13.5543 11.7119 13.1853 11.3335 12.7095C10.9589 12.2337 10.661 11.6754 10.44 11.0348C10.2114 11.7166 9.89486 12.3142 9.49023 12.8275C9.08935 13.337 8.60792 13.7304 8.04594 14.0077L7.158 12.85C7.71624 12.5952 8.18643 12.2262 8.56858 11.7429C8.95073 11.2558 9.23547 10.7069 9.4228 10.0963C9.61387 9.48182 9.70941 8.84866 9.70941 8.19675V6.66816H11.1481V8.19675ZM15.4529 9.82651H16.959V11.0404H15.4529V16.1095H14.0142V5.88138H15.4529V9.82651ZM20.1848 6.31973C20.6156 6.31598 21.0128 6.39091 21.3762 6.54452C21.7434 6.69813 22.0506 6.91356 22.2979 7.1908C22.5489 7.46805 22.7193 7.78838 22.8093 8.1518H24.5233V5.88138H25.9507V11.3776H24.5233V9.29824H22.8205C22.7343 9.66915 22.5657 9.99885 22.3147 10.2873C22.0674 10.5721 21.7583 10.7931 21.3874 10.9505C21.0203 11.1078 20.6194 11.1865 20.1848 11.1865C19.6678 11.1865 19.2013 11.0816 18.7855 10.8718C18.3696 10.662 18.0436 10.3716 17.8076 10.0007C17.5753 9.62607 17.461 9.20458 17.4648 8.73626C17.461 8.27543 17.5753 7.86144 17.8076 7.49427C18.0436 7.12336 18.3696 6.83488 18.7855 6.62882C19.2013 6.41901 19.6678 6.31598 20.1848 6.31973ZM20.1848 7.51113C19.9188 7.50739 19.6809 7.55609 19.4711 7.65725C19.265 7.75466 19.1039 7.89703 18.9878 8.08436C18.8754 8.26794 18.821 8.48524 18.8248 8.73626C18.821 8.98728 18.8754 9.20645 18.9878 9.39378C19.1039 9.58111 19.265 9.72722 19.4711 9.83213C19.6809 9.93329 19.9188 9.98386 20.1848 9.98386C20.4433 9.98386 20.6737 9.93329 20.876 9.83213C21.0783 9.72722 21.2357 9.58111 21.3481 9.39378C21.4642 9.20645 21.5223 8.98728 21.5223 8.73626C21.5223 8.48524 21.4642 8.26794 21.3481 8.08436C21.2357 7.89703 21.0783 7.75466 20.876 7.65725C20.6737 7.55609 20.4433 7.50739 20.1848 7.51113ZM20.5445 12.8163H24.5233V11.8272H25.9507V15.9971H19.1283V11.8272H20.5445V12.8163ZM24.5233 14.8394V13.9178H20.5445V14.8394H24.5233ZM33.0879 7.71345H31.0536C31.0573 8.12557 31.1435 8.51709 31.3121 8.88799C31.4844 9.25516 31.7467 9.58298 32.0989 9.87147C32.451 10.16 32.8894 10.381 33.4139 10.5346L32.7283 11.6586C32.1775 11.49 31.7036 11.2427 31.3065 10.9168C30.9093 10.5908 30.5946 10.203 30.3623 9.75345C30.13 10.2817 29.8022 10.7407 29.3789 11.1303C28.9592 11.5162 28.4497 11.8084 27.8503 12.007L27.1197 10.8718C27.6629 10.6995 28.12 10.4503 28.4909 10.1244C28.8618 9.79841 29.1372 9.4275 29.317 9.01163C29.5006 8.59576 29.5962 8.16304 29.6036 7.71345H27.5131V6.567H33.0879V7.71345ZM35.3921 8.25295H36.7746V9.42188H35.3921V11.9508H33.9534V5.88138H35.3921V8.25295ZM32.0427 12.1531C32.747 12.1494 33.3577 12.2262 33.8747 12.3835C34.3955 12.5371 34.7945 12.7619 35.0717 13.0579C35.3527 13.3539 35.4932 13.7079 35.4932 14.1201C35.4932 14.5322 35.3527 14.8862 35.0717 15.1822C34.7945 15.4819 34.3955 15.7105 33.8747 15.8678C33.3577 16.0289 32.747 16.1095 32.0427 16.1095C31.3233 16.1095 30.6995 16.0289 30.1712 15.8678C29.6467 15.7105 29.2421 15.4819 28.9574 15.1822C28.6764 14.8862 28.5359 14.5322 28.5359 14.1201C28.5359 13.7079 28.6764 13.3539 28.9574 13.0579C29.2421 12.7619 29.6467 12.5371 30.1712 12.3835C30.6995 12.2262 31.3233 12.1494 32.0427 12.1531ZM32.0427 13.2659C31.3608 13.2659 30.8438 13.337 30.4916 13.4794C30.1431 13.6218 29.9708 13.8353 29.9746 14.1201C29.9708 14.4086 30.145 14.6277 30.4972 14.7776C30.8494 14.9237 31.3645 14.9968 32.0427 14.9968C32.7095 14.9968 33.2153 14.9237 33.56 14.7776C33.9047 14.6315 34.077 14.4123 34.077 14.1201C34.077 13.8353 33.9047 13.6218 33.56 13.4794C33.2153 13.337 32.7095 13.2659 32.0427 13.2659Z" fill="#F67229"/>
</svg>
