<svg width="44" height="21" viewBox="0 0 44 21" fill="none" xmlns="http://www.w3.org/2000/svg">
<rect x="0.575472" y="0.575472" width="42.8491" height="19.8491" rx="9.78302" stroke="#BCBCBC" stroke-width="1.15094"/>
<path d="M16.7454 14.9181H7.38279V13.7492H11.3279V11.8609H8.37189V6.53328H9.81057V8.11808H14.2727V6.53328H15.7002V11.8609H12.7554V13.7492H16.7454V14.9181ZM14.2727 10.7144V9.26452H9.81057V10.7144H14.2727ZM23.0621 7.26386C23.0621 7.78838 23.049 8.28105 23.0228 8.74188C22.9966 9.19896 22.931 9.70662 22.8261 10.2649L21.4212 10.13C21.5635 9.34695 21.6422 8.56766 21.6572 7.79213H17.802V6.6232H23.0621V7.26386ZM20.522 10.9449C21.6834 10.8924 22.6912 10.8044 23.5455 10.6807L23.6241 11.7148C22.6837 11.8871 21.704 12.0014 20.685 12.0576C19.6659 12.1138 18.5438 12.1456 17.3187 12.1531L17.195 11.0067C18.008 11.0067 18.6412 11.0011 19.0945 10.9898V8.98353H20.522V10.9449ZM25.5686 8.99477H26.805V10.1974H25.5686V13.5356H24.0962V5.88138H25.5686V8.99477ZM25.8833 15.9297H18.7012V12.85H20.1398V14.7832H25.8833V15.9297ZM35.8866 12.0969H34.4592V5.89262H35.8866V12.0969ZM27.3557 10.7482C28.3186 10.7482 29.1878 10.7388 29.9633 10.7201V9.79279H28.1874V6.39841H33.1779V7.55609H29.6261V8.64634H33.2341V9.79279H31.4132V10.6582C32.3611 10.5983 33.1666 10.5234 33.8298 10.4335L33.9197 11.4225C32.9493 11.5986 31.9452 11.7129 30.9074 11.7654C29.8696 11.8141 28.7344 11.8384 27.5018 11.8384L27.3557 10.7482ZM35.8866 15.9971H28.9293V12.5128H35.8866V15.9971ZM30.3342 14.8506H34.4929V13.648H30.3342V14.8506Z" fill="#A7A7A7"/>
</svg>
