<svg width="54" height="21" viewBox="0 0 54 21" fill="none" xmlns="http://www.w3.org/2000/svg">
<rect x="0.575472" y="0.575472" width="52.6604" height="19.566" rx="9.78302" stroke="#BCBCBC" stroke-width="1.15094"/>
<path d="M15.8795 11.5285H14.4409V5.75126H15.8795V11.5285ZM15.8795 15.8557H9.02333V11.9893H15.8795V15.8557ZM10.4395 14.7093H14.4746V13.1245H10.4395V14.7093ZM10.2709 6.21209C10.7992 6.21209 11.275 6.31699 11.6984 6.5268C12.1255 6.73661 12.4608 7.02884 12.7043 7.4035C12.9479 7.77815 13.0696 8.20526 13.0696 8.68482C13.0696 9.14565 12.9479 9.56151 12.7043 9.93242C12.4608 10.3033 12.1255 10.5956 11.6984 10.8091C11.2713 11.0189 10.7955 11.1238 10.2709 11.1238C9.74642 11.1238 9.2706 11.0189 8.84349 10.8091C8.41639 10.5956 8.08107 10.3033 7.83754 9.93242C7.59402 9.56151 7.47225 9.14565 7.47225 8.68482C7.47225 8.20526 7.59402 7.77815 7.83754 7.4035C8.08107 7.02884 8.41451 6.73661 8.83788 6.5268C9.26498 6.31699 9.74267 6.21209 10.2709 6.21209ZM10.2709 7.41474C9.99744 7.41474 9.75391 7.46531 9.54036 7.56647C9.33055 7.66763 9.1657 7.81374 9.04581 8.00482C8.92967 8.19589 8.87347 8.42256 8.87721 8.68482C8.87347 8.93584 8.92967 9.15501 9.04581 9.34234C9.1657 9.52592 9.33055 9.66829 9.54036 9.76945C9.75391 9.87061 9.99744 9.92118 10.2709 9.92118C10.5369 9.92118 10.7748 9.87061 10.9847 9.76945C11.1945 9.66829 11.3574 9.52592 11.4736 9.34234C11.5935 9.15501 11.6534 8.93584 11.6534 8.68482C11.6534 8.42256 11.5935 8.19589 11.4736 8.00482C11.3574 7.81374 11.1945 7.66763 10.9847 7.56647C10.7748 7.46531 10.5369 7.41474 10.2709 7.41474ZM21.2409 8.0554C21.2409 8.69606 21.3383 9.31611 21.5331 9.91556C21.7279 10.5113 22.0183 11.0414 22.4042 11.506C22.7938 11.9668 23.2678 12.3152 23.826 12.5513L22.983 13.6977C22.4135 13.4392 21.9227 13.0702 21.5106 12.5906C21.1022 12.1073 20.7782 11.5397 20.5384 10.8878C20.2986 11.5996 19.9652 12.2178 19.5381 12.7423C19.1147 13.2669 18.5995 13.6677 17.9926 13.945L17.1271 12.7536C17.7041 12.5101 18.1912 12.1485 18.5883 11.669C18.9854 11.1856 19.2833 10.633 19.4819 10.0111C19.6842 9.38917 19.7872 8.73727 19.7909 8.0554V6.5268H21.2409V8.0554ZM25.8267 15.9906H24.3767V5.74002H25.8267V15.9906ZM35.8524 15.9906H34.4138V10.4719H32.5817V9.303H34.4138V5.74002H35.8524V15.9906ZM31.0756 8.30267C31.0756 8.92085 31.1692 9.52218 31.3566 10.1066C31.5477 10.6874 31.8343 11.2081 32.2164 11.669C32.6023 12.1298 33.0725 12.4801 33.627 12.7199L32.784 13.8551C32.207 13.5853 31.7144 13.1976 31.306 12.6918C30.8976 12.186 30.581 11.5959 30.3562 10.9215C30.1277 11.6446 29.8055 12.2796 29.3896 12.8266C28.9775 13.3699 28.483 13.7839 27.906 14.0686L27.0518 12.9334C27.6063 12.6787 28.0746 12.3115 28.4567 11.8319C28.8389 11.3486 29.1255 10.8035 29.3166 10.1966C29.5076 9.58587 29.6032 8.95457 29.6032 8.30267V7.87556H27.4789V6.72911H33.1999V7.87556H31.0756V8.30267ZM42.9672 7.57209H40.9328C40.9365 7.98421 41.0227 8.37573 41.1913 8.74664C41.3636 9.1138 41.6259 9.44162 41.9781 9.73011C42.3303 10.0186 42.7686 10.2396 43.2931 10.3933L42.6075 11.5172C42.0568 11.3486 41.5828 11.1014 41.1857 10.7754C40.7885 10.4494 40.4738 10.0617 40.2415 9.61209C40.0093 10.1404 39.6814 10.5993 39.2581 10.989C38.8385 11.3748 38.3289 11.6671 37.7295 11.8656L36.9989 10.7304C37.5421 10.5581 37.9992 10.309 38.3701 9.983C38.741 9.65705 39.0164 9.28614 39.1963 8.87027C39.3798 8.45441 39.4754 8.02168 39.4829 7.57209H37.3923V6.42564H42.9672V7.57209ZM45.2713 8.1116H46.6538V9.28052H45.2713V11.8095H43.8326V5.74002H45.2713V8.1116ZM41.9219 12.0118C42.6262 12.008 43.2369 12.0848 43.7539 12.2422C44.2747 12.3958 44.6737 12.6206 44.951 12.9166C45.232 13.2125 45.3725 13.5666 45.3725 13.9787C45.3725 14.3908 45.232 14.7449 44.951 15.0409C44.6737 15.3406 44.2747 15.5691 43.7539 15.7265C43.2369 15.8876 42.6262 15.9681 41.9219 15.9681C41.2025 15.9681 40.5787 15.8876 40.0505 15.7265C39.526 15.5691 39.1213 15.3406 38.8366 15.0409C38.5556 14.7449 38.4151 14.3908 38.4151 13.9787C38.4151 13.5666 38.5556 13.2125 38.8366 12.9166C39.1213 12.6206 39.526 12.3958 40.0505 12.2422C40.5787 12.0848 41.2025 12.008 41.9219 12.0118ZM41.9219 13.1245C41.24 13.1245 40.723 13.1957 40.3708 13.338C40.0224 13.4804 39.85 13.694 39.8538 13.9787C39.85 14.2672 40.0242 14.4864 40.3764 14.6362C40.7286 14.7823 41.2438 14.8554 41.9219 14.8554C42.5888 14.8554 43.0946 14.7823 43.4392 14.6362C43.7839 14.4901 43.9563 14.2709 43.9563 13.9787C43.9563 13.694 43.7839 13.4804 43.4392 13.338C43.0946 13.1957 42.5888 13.1245 41.9219 13.1245Z" fill="#A7A7A7"/>
</svg>
