<svg width="54" height="21" viewBox="0 0 54 21" fill="none" xmlns="http://www.w3.org/2000/svg">
<rect x="0.575472" y="0.575472" width="52.6604" height="19.566" rx="9.78302" stroke="#99C1F7" stroke-width="1.15094"/>
<path d="M15.9133 15.9681H14.4858V5.74002H15.9133V15.9681ZM7.88812 13.0795L9.96746 13.0514V12.186C9.59281 12.1185 9.26498 11.9987 8.98399 11.8263C8.70675 11.654 8.49319 11.4404 8.34333 11.1856C8.19347 10.9271 8.12041 10.6405 8.12416 10.3258C8.12041 9.94741 8.22531 9.61397 8.43887 9.32548C8.65242 9.03325 8.95215 8.80658 9.33804 8.64548C9.72394 8.48438 10.166 8.40383 10.6643 8.40383C11.1664 8.40383 11.6122 8.48438 12.0018 8.64548C12.3915 8.80658 12.695 9.03325 12.9123 9.32548C13.1296 9.61397 13.2382 9.94741 13.2382 10.3258C13.2382 10.6405 13.1614 10.9271 13.0078 11.1856C12.8579 11.4404 12.6425 11.654 12.3615 11.8263C12.0843 11.9987 11.7583 12.1185 11.3837 12.186V13.0065C12.3428 12.9578 13.1895 12.8847 13.9238 12.7873L14.025 13.8438C13.0321 14.0124 12.0131 14.123 10.9678 14.1754C9.92625 14.2241 8.7873 14.2485 7.55093 14.2485L7.35986 13.0795H7.88812ZM13.7777 7.9992H7.56217V6.87523H9.96746V5.78498H11.3949V6.87523H13.7777V7.9992ZM10.6643 9.49408C10.3084 9.49408 10.0218 9.56901 9.80449 9.71887C9.58719 9.86499 9.48041 10.0673 9.48416 10.3258C9.48041 10.5881 9.58531 10.7923 9.79887 10.9384C10.0162 11.0845 10.3047 11.1575 10.6643 11.1575C11.0315 11.1575 11.3237 11.0864 11.541 10.944C11.7583 10.7979 11.867 10.5918 11.867 10.3258C11.867 10.0636 11.7564 9.85937 11.5354 9.71325C11.3181 9.56713 11.0277 9.49408 10.6643 9.49408ZM21.0273 8.0554C21.0236 8.68107 21.1116 9.28802 21.2914 9.87623C21.4713 10.4607 21.7429 10.9852 22.1063 11.4498C22.4697 11.9144 22.9156 12.274 23.4438 12.5288L22.5784 13.6752C22.0464 13.413 21.5912 13.0439 21.2128 12.5681C20.8381 12.0923 20.5403 11.5341 20.3192 10.8934C20.0907 11.5753 19.7741 12.1729 19.3695 12.6861C18.9686 13.1957 18.4871 13.5891 17.9252 13.8663L17.0372 12.7086C17.5955 12.4539 18.0657 12.0848 18.4478 11.6015C18.83 11.1145 19.1147 10.5656 19.302 9.9549C19.4931 9.34047 19.5886 8.7073 19.5886 8.0554V6.5268H21.0273V8.0554ZM25.3321 9.68515H26.8382V10.899H25.3321V15.9681H23.8934V5.74002H25.3321V9.68515ZM35.83 13.2144H34.4025V9.55027H32.7278V8.39259H34.4025V5.75126H35.83V13.2144ZM36.0772 15.7883H29.0412V12.5625H30.4799V14.6419H36.0772V15.7883ZM31.0756 7.75193C31.0756 8.1603 31.1599 8.55931 31.3285 8.94895C31.5008 9.33859 31.7631 9.69077 32.1153 10.0055C32.4674 10.3202 32.9039 10.5618 33.4247 10.7304L32.7166 11.8656C32.1658 11.6896 31.6919 11.4254 31.2948 11.0733C30.9014 10.7211 30.5885 10.3052 30.3562 9.82565C30.124 10.3577 29.7999 10.8166 29.384 11.2025C28.9719 11.5884 28.4717 11.8806 27.8835 12.0792L27.1529 10.9103C27.6924 10.7417 28.1458 10.4925 28.5129 10.1628C28.8838 9.83314 29.1592 9.46036 29.3391 9.04449C29.5189 8.62487 29.6107 8.19027 29.6144 7.74069V7.58333H27.5576V6.43688H33.11V7.58333H31.0756V7.75193ZM40.3483 8.85341C40.3483 9.6889 40.5113 10.4532 40.8372 11.1463C41.1669 11.8394 41.6746 12.3714 42.3602 12.7423L41.5734 13.7876C41.1276 13.5591 40.7473 13.2481 40.4326 12.8547C40.1179 12.4614 39.8688 12.0061 39.6852 11.4891C39.4979 12.0549 39.2468 12.555 38.9321 12.9896C38.6174 13.4242 38.2353 13.7726 37.7857 14.0349L36.9652 12.9559C37.6583 12.555 38.1678 11.9874 38.4938 11.2531C38.8235 10.5188 38.9921 9.71887 38.9996 8.85341V8.61738H37.3473V7.47093H38.9996V6.08845H40.3371V7.47093H41.9556V8.61738H40.3483V8.85341ZM46.0019 15.9681H44.6419V5.74002H46.0019V15.9681ZM43.9113 15.4961H42.5625V10.7866H41.3599V9.61771H42.5625V5.90862H43.9113V15.4961Z" fill="#1260CE"/>
</svg>
