<svg width="25" height="25" viewBox="0 0 25 25" fill="none" xmlns="http://www.w3.org/2000/svg">
<path d="M5.1003 18.302L4.34617 17.7243L4.34617 17.7243L5.1003 18.302ZM6.20512 15.1959L5.25512 15.1841V15.1959H6.20512ZM6.22831 13.3178L7.17831 13.3296V13.3178H6.22831ZM20.1056 18.3171L20.8712 17.7546L20.8712 17.7546L20.1056 18.3171ZM19.0424 15.1959L18.0924 15.1835V15.1959H19.0424ZM19.0655 13.4109L20.0155 13.4232V13.4109H19.0655ZM16.59 19.1875C16.59 18.6628 16.1647 18.2375 15.64 18.2375C15.1153 18.2375 14.69 18.6628 14.69 19.1875H15.64H16.59ZM10.51 19.1875C10.51 18.6628 10.0847 18.2375 9.56 18.2375C9.03533 18.2375 8.61 18.6628 8.61 19.1875H9.56H10.51ZM4.11985 7.14612C3.92239 7.63221 4.15636 8.18634 4.64246 8.38381C5.12855 8.58127 5.68268 8.3473 5.88015 7.8612L5 7.50366L4.11985 7.14612ZM8.12136 5.33876C8.58464 5.09248 8.76055 4.51727 8.51427 4.05399C8.26799 3.59071 7.69279 3.4148 7.22951 3.66108L7.67544 4.49992L8.12136 5.33876ZM17.9605 3.67394C17.4998 3.42279 16.9228 3.59263 16.6716 4.05328C16.4205 4.51394 16.5903 5.09097 17.051 5.34212L17.5057 4.50803L17.9605 3.67394ZM19.316 7.84352C19.5083 8.33171 20.0598 8.57165 20.548 8.37944C21.0362 8.18723 21.2762 7.63566 21.084 7.14746L20.2 7.49549L19.316 7.84352ZM5.1003 18.302L5.85442 18.8798C6.50152 18.0351 7.15512 16.7609 7.15512 15.1959H6.20512H5.25512C5.25512 16.223 4.82347 17.1013 4.34617 17.7243L5.1003 18.302ZM6.20512 15.1959L7.15505 15.2076L7.17824 13.3296L6.22831 13.3178L5.27839 13.3061L5.2552 15.1841L6.20512 15.1959ZM20.1056 18.3171L20.8712 17.7546C20.4144 17.1329 19.9924 16.2435 19.9924 15.1959H19.0424H18.0924C18.0924 16.7581 18.7181 18.0331 19.34 18.8796L20.1056 18.3171ZM19.0424 15.1959L19.9923 15.2082L20.0155 13.4232L19.0655 13.4109L18.1156 13.3986L18.0924 15.1835L19.0424 15.1959ZM19.0655 13.4109H20.0155C20.0155 9.338 16.6879 6.05 12.6 6.05V7V7.95C15.6538 7.95 18.1155 10.4025 18.1155 13.4109H19.0655ZM19.7187 19.1875V20.1375C20.4085 20.1375 20.8444 19.6567 21.0208 19.2459C21.1958 18.8382 21.2335 18.2477 20.8712 17.7546L20.1056 18.3171L19.34 18.8796C19.2107 18.7035 19.2526 18.5482 19.2749 18.4964C19.2984 18.4416 19.4244 18.2375 19.7187 18.2375V19.1875ZM6.22831 13.3178H7.17831C7.17831 10.3608 9.59807 7.95 12.6 7.95V7V6.05C8.56396 6.05 5.27831 9.29634 5.27831 13.3178H6.22831ZM5.48225 19.1875V18.2375C5.78316 18.2375 5.90664 18.4487 5.92724 18.4982C5.94678 18.5451 5.99034 18.7024 5.85442 18.8798L5.1003 18.302L4.34617 17.7243C3.96797 18.2179 4.00224 18.8179 4.1732 19.2285C4.34521 19.6416 4.78081 20.1375 5.48225 20.1375V19.1875ZM19.7187 19.1875V18.2375H5.48225V19.1875V20.1375H19.7187V19.1875ZM15.64 19.1875H14.69C14.69 20.1479 13.8252 21.05 12.6 21.05V22V22.95C14.7327 22.95 16.59 21.3337 16.59 19.1875H15.64ZM12.6 22V21.05C11.3748 21.05 10.51 20.1479 10.51 19.1875H9.56H8.61C8.61 21.3337 10.4673 22.95 12.6 22.95V22ZM14.6267 5H13.6767C13.6767 5.56807 13.2065 6.05 12.6 6.05V7V7.95C14.2321 7.95 15.5767 6.64106 15.5767 5H14.6267ZM12.6 7V6.05C11.9935 6.05 11.5233 5.56808 11.5233 5H10.5733H9.62333C9.62333 6.64106 10.9679 7.95 12.6 7.95V7ZM10.5733 5H11.5233C11.5233 4.43192 11.9935 3.95 12.6 3.95V3V2.05C10.9679 2.05 9.62333 3.35894 9.62333 5H10.5733ZM12.6 3V3.95C13.2065 3.95 13.6767 4.43192 13.6767 5H14.6267H15.5767C15.5767 3.35894 14.2321 2.05 12.6 2.05V3ZM5 7.50366L5.88015 7.8612C6.32142 6.77495 7.10708 5.87795 8.12136 5.33876L7.67544 4.49992L7.22951 3.66108C5.79944 4.42131 4.71899 5.67123 4.11985 7.14612L5 7.50366ZM17.5057 4.50803L17.051 5.34212C18.099 5.91349 18.903 6.79442 19.316 7.84352L20.2 7.49549L21.084 7.14746C20.4944 5.6501 19.3669 4.44072 17.9605 3.67394L17.5057 4.50803Z" fill="white"/>
</svg>
