<svg width="42" height="33" viewBox="0 0 42 33" fill="none" xmlns="http://www.w3.org/2000/svg">
<path d="M0 12.4015C0 5.33555 6.80225 0 14.6612 0C20.9152 0 26.4602 3.35435 28.4976 8.27897C28.5889 8.49984 28.4299 8.73943 28.1909 8.75913C27.5254 8.81396 26.8644 8.90812 26.2129 9.03984C26.0466 9.07347 25.8788 8.98899 25.8044 8.83698C24.0818 5.31429 19.8505 2.67102 14.6612 2.67102C7.8067 2.67102 2.68139 7.24428 2.68139 12.4015C2.68139 15.1877 4.13635 17.7604 6.58282 19.5795C6.92186 19.8316 7.12155 20.2283 7.12155 20.6497V22.3248L9.8881 21.5587C10.129 21.492 10.3839 21.4938 10.6239 21.5638C11.7156 21.8822 12.8826 22.0757 14.0997 22.1214C14.2928 22.1287 14.4484 22.2835 14.4568 22.4758C14.4899 23.2378 14.5923 23.9738 14.7573 24.6814C14.7717 24.7432 14.7249 24.8028 14.6612 24.803C13.1256 24.803 11.6419 24.6035 10.2461 24.2319L6.13994 25.369C5.73624 25.4808 5.30328 25.3981 4.96967 25.1456C4.63606 24.893 4.44016 24.4996 4.44016 24.0823V21.2987C1.74114 19.0796 0 15.9399 0 12.4015Z" fill="#1062D8"/>
<path d="M11.8068 8.91775C11.8068 9.96463 10.9549 10.8133 9.9039 10.8133C8.85294 10.8133 8.00097 9.96463 8.00097 8.91775C8.00097 7.87086 8.85294 7.02218 9.9039 7.02218C10.9549 7.02218 11.8068 7.87086 11.8068 8.91775Z" fill="#1062D8"/>
<path d="M19.4185 10.8133C20.4695 10.8133 21.3214 9.96463 21.3214 8.91775C21.3214 7.87086 20.4695 7.02218 19.4185 7.02218C18.3675 7.02218 17.5156 7.87086 17.5156 8.91775C17.5156 9.96463 18.3675 10.8133 19.4185 10.8133Z" fill="#1062D8"/>
<path d="M25.5553 21.2389C26.4749 21.2389 27.2204 20.4963 27.2204 19.5803C27.2204 18.6643 26.4749 17.9217 25.5553 17.9217C24.6358 17.9217 23.8903 18.6643 23.8903 19.5803C23.8903 20.4963 24.6358 21.2389 25.5553 21.2389Z" fill="#1062D8"/>
<path d="M35.3079 19.5803C35.3079 20.4963 34.5624 21.2389 33.6428 21.2389C32.7233 21.2389 31.9778 20.4963 31.9778 19.5803C31.9778 18.6643 32.7233 17.9217 33.6428 17.9217C34.5624 17.9217 35.3079 18.6643 35.3079 19.5803Z" fill="#1062D8"/>
<path fill-rule="evenodd" clip-rule="evenodd" d="M29.5589 11.7677C36.1917 11.7677 42 16.2775 42 22.3248C42 25.3144 40.5545 27.5682 38.3083 29.4491V31.6645C38.3083 32.0819 38.1124 32.4753 37.7788 32.7278C37.4452 32.9803 37.0123 33.063 36.6086 32.9512L33.2452 32.0198C32.0804 32.3245 30.8448 32.4877 29.5674 32.4877C22.9346 32.4877 17.1263 27.9779 17.1263 21.9305C17.1263 15.8832 22.9261 11.7677 29.5589 11.7677ZM39.3271 21.9305C39.3271 17.7919 35.1957 14.0444 29.5674 14.0444C23.939 14.0444 19.8077 17.7919 19.8077 21.9305C19.8077 26.0691 23.939 29.8167 29.5674 29.8167C30.7296 29.8167 31.8406 29.6521 32.869 29.3521C33.109 29.2821 33.3638 29.2804 33.6048 29.3471L35.6269 29.9071V28.804C35.6269 28.3826 35.8266 27.9859 36.1657 27.7338C38.1579 26.2525 39.3271 24.1704 39.3271 21.9305Z" fill="#1062D8"/>
</svg>
