<svg width="39" height="39" viewBox="0 0 39 39" fill="none" xmlns="http://www.w3.org/2000/svg">
<path d="M21.3201 2.87133C22.1651 3.44238 22.7059 4.18242 22.9277 5.1797C23.0255 6.2976 22.9002 7.26152 22.166 8.1504C21.7783 8.5546 21.3873 8.84711 20.8711 9.06446C20.8208 9.06446 20.7705 9.06446 20.7187 9.06446C20.7187 9.71802 20.7187 10.3716 20.7187 11.0449C20.9596 11.0433 21.2006 11.0417 21.4488 11.0401C22.2484 11.035 23.048 11.0317 23.8476 11.0291C24.3319 11.0276 24.8163 11.0254 25.3007 11.0219C25.7689 11.0186 26.2371 11.0168 26.7053 11.016C26.8832 11.0155 27.061 11.0144 27.2389 11.0127C28.9144 10.9978 30.3275 11.1936 31.6027 12.3909C32.3654 13.1468 32.9667 14.2608 32.9875 15.3502C32.9869 15.445 32.9863 15.5399 32.9857 15.6376C32.9852 15.7333 32.9847 15.8291 32.9842 15.9277C32.9836 16.0006 32.983 16.0734 32.9824 16.1484C33.0615 16.1469 33.1406 16.1453 33.222 16.1436C33.5187 16.138 33.8154 16.1346 34.1121 16.1317C34.2399 16.1302 34.3677 16.1281 34.4955 16.1255C35.4613 16.1059 36.2252 16.1432 36.9621 16.8399C37.5081 17.4382 37.6521 18.0531 37.6498 18.8428C37.6504 18.9472 37.6504 18.9472 37.651 19.0536C37.652 19.2824 37.652 19.5111 37.6518 19.7398C37.6521 19.8997 37.6524 20.0595 37.6528 20.2193C37.6533 20.554 37.6533 20.8886 37.6529 21.2232C37.6525 21.6508 37.6538 22.0784 37.6555 22.5061C37.6567 22.8361 37.6567 23.1661 37.6565 23.4961C37.6565 23.6537 37.6569 23.8113 37.6577 23.9689C37.6586 24.1898 37.6581 24.4107 37.6572 24.6316C37.6578 24.696 37.6584 24.7603 37.659 24.8266C37.6523 25.5927 37.4025 26.1872 36.8672 26.7363C36.3344 27.1591 35.8091 27.2933 35.1396 27.2844C35.0777 27.2842 35.0158 27.284 34.952 27.2838C34.7557 27.2829 34.5593 27.281 34.363 27.2791C34.2293 27.2783 34.0956 27.2776 33.9619 27.277C33.6354 27.2753 33.3089 27.2727 32.9824 27.2695C32.9838 27.3771 32.9838 27.3771 32.9852 27.4867C32.986 27.5816 32.9867 27.6765 32.9875 27.7742C32.9889 27.9147 32.9889 27.9147 32.9903 28.058C32.954 29.3327 32.2774 30.3801 31.3828 31.2305C30.4144 32.1072 29.2438 32.4101 27.9684 32.399C27.8654 32.3989 27.7625 32.399 27.6596 32.3991C27.3828 32.3992 27.106 32.3978 26.8293 32.3962C26.539 32.3948 26.2488 32.3947 25.9585 32.3944C25.4101 32.3937 24.8617 32.3918 24.3133 32.3895C23.6884 32.387 23.0636 32.3857 22.4387 32.3846C21.1545 32.3822 19.8702 32.3782 18.5859 32.3731C18.5877 32.5061 18.5877 32.5061 18.5895 32.6419C18.5937 32.9736 18.5963 33.3054 18.5985 33.6372C18.5996 33.7803 18.6012 33.9234 18.6031 34.0664C18.6059 34.2731 18.6072 34.4798 18.6082 34.6865C18.61 34.7811 18.61 34.7811 18.6118 34.8777C18.6119 35.3437 18.5674 35.8638 18.2495 36.2297C17.8845 36.5454 17.5687 36.5908 17.1041 36.5827C16.5611 36.5261 16.2 36.11 15.8184 35.7568C15.618 35.5748 15.4119 35.4039 15.201 35.2343C14.8375 34.9403 14.4931 34.6299 14.1492 34.3134C13.8766 34.0686 13.5928 33.8396 13.3077 33.6097C13.0353 33.3848 12.7744 33.1484 12.5142 32.9095C12.4279 32.8325 12.4279 32.8325 12.3398 32.7539C12.2891 32.6978 12.2383 32.6416 12.186 32.5837C11.8194 32.3665 11.4389 32.4142 11.0211 32.4159C9.4847 32.389 8.33112 31.9574 7.2363 30.8496C6.45132 29.9916 5.99981 28.9388 6.0122 27.7736C6.01297 27.6788 6.01374 27.5841 6.01454 27.4864C6.01553 27.4148 6.01653 27.3433 6.01755 27.2695C5.93616 27.2711 5.85478 27.2727 5.77092 27.2744C5.46571 27.2799 5.16051 27.2834 4.85526 27.2863C4.72376 27.2878 4.59227 27.2899 4.46079 27.2925C3.53661 27.3107 2.73513 27.306 2.02091 26.6373C1.48609 26.0438 1.34788 25.4292 1.35015 24.6513C1.34956 24.547 1.34956 24.547 1.34897 24.4405C1.34791 24.2118 1.34798 23.9831 1.34816 23.7543C1.34786 23.5945 1.34753 23.4347 1.34717 23.2748C1.3466 22.9402 1.34662 22.6056 1.34702 22.271C1.34746 21.8433 1.34617 21.4157 1.34441 20.9881C1.34328 20.6581 1.34322 20.3281 1.34345 19.9981C1.34341 19.8405 1.34302 19.6828 1.34225 19.5252C1.3413 19.3043 1.34183 19.0835 1.34271 18.8626C1.34212 18.7982 1.34154 18.7338 1.34094 18.6675C1.34705 17.9695 1.54652 17.3648 2.03251 16.8507C2.8278 16.0954 3.65781 16.1079 4.69406 16.1294C4.8227 16.1309 4.95134 16.1323 5.07998 16.1336C5.39255 16.1369 5.70503 16.1421 6.01755 16.1484C6.01656 16.0769 6.01556 16.0053 6.01454 15.9316C6.01377 15.8368 6.01299 15.742 6.0122 15.6444C6.0112 15.5508 6.01021 15.4573 6.00918 15.3609C6.04693 14.1033 6.74218 13.0346 7.61716 12.178C7.919 11.921 8.24208 11.7344 8.59311 11.5543C8.64088 11.5295 8.68865 11.5047 8.73787 11.4792C9.79398 10.9658 10.8551 11.0147 12.003 11.0226C12.1844 11.023 12.3658 11.0234 12.5473 11.0236C13.0221 11.0245 13.497 11.0267 13.9718 11.0292C14.4574 11.0316 14.943 11.0326 15.4286 11.0338C16.3795 11.0362 17.3304 11.0402 18.2812 11.0449C18.2812 10.3914 18.2812 9.73782 18.2812 9.06446C18.1053 9.01419 17.9293 8.96392 17.748 8.91212C16.9403 8.42696 16.3664 7.69267 16.107 6.78697C15.9081 5.87033 16.0348 4.849 16.5061 4.04545C17.5732 2.4642 19.6366 1.88534 21.3201 2.87133ZM18.7383 5.25587C18.5353 5.52645 18.5445 5.84491 18.5859 6.16993C18.7199 6.48729 18.8779 6.64531 19.1953 6.77931C19.4992 6.82431 19.7349 6.80874 20.0189 6.68885C20.3181 6.44098 20.4042 6.25813 20.4474 5.87C20.4351 5.54626 20.3173 5.35306 20.1093 5.10352C19.6621 4.80535 19.1015 4.84722 18.7383 5.25587ZM8.98825 14.3965C8.64782 14.8978 8.52215 15.2932 8.52001 15.8983C8.51973 15.9496 8.51945 16.001 8.51916 16.0539C8.51833 16.2259 8.51803 16.3979 8.51774 16.57C8.51726 16.6933 8.51676 16.8167 8.51622 16.9401C8.51462 17.3453 8.51383 17.7505 8.51307 18.1557C8.51276 18.2954 8.51245 18.435 8.51213 18.5747C8.51068 19.231 8.5096 19.8874 8.50896 20.5437C8.50822 21.3004 8.50621 22.0571 8.50313 22.8138C8.50083 23.3993 8.49971 23.9847 8.49946 24.5702C8.49928 24.9196 8.4986 25.2689 8.49668 25.6183C8.4949 25.9473 8.49459 26.2763 8.49537 26.6053C8.49541 26.7256 8.49493 26.8459 8.49388 26.9662C8.48646 27.867 8.57594 28.5942 9.21915 29.2688C9.98397 29.9501 10.9126 29.96 11.8875 29.93C12.619 29.9136 13.1075 30.0206 13.6443 30.5306C13.7429 30.6202 13.8416 30.7098 13.9403 30.7993C13.9902 30.8454 14.0402 30.8914 14.0916 30.9388C14.3394 31.1651 14.5943 31.3831 14.8487 31.6018C15.1998 31.9054 15.5495 32.2104 15.8955 32.5197C15.9843 32.6096 15.9843 32.6096 16.0722 32.6016C16.073 32.5463 16.0737 32.491 16.0744 32.434C16.0785 32.182 16.0849 31.93 16.0913 31.678C16.0924 31.591 16.0934 31.504 16.0946 31.4144C16.1087 30.9295 16.12 30.6055 16.4531 30.2402C16.8426 29.9506 17.2185 29.9261 17.6927 29.9256C17.8371 29.9251 17.8371 29.9251 17.9845 29.9246C18.0907 29.9247 18.1969 29.9247 18.303 29.9248C18.4153 29.9245 18.5275 29.9243 18.6398 29.924C18.8813 29.9233 19.1228 29.923 19.3642 29.9227C19.7465 29.9223 20.1288 29.921 20.511 29.9196C20.6421 29.9191 20.7731 29.9186 20.9041 29.9181C21.0025 29.9178 21.0025 29.9178 21.1029 29.9174C21.9926 29.9142 22.8822 29.9117 23.7718 29.9107C24.3723 29.9101 24.9728 29.9084 25.5734 29.9054C25.8908 29.9039 26.2083 29.903 26.5258 29.9034C26.8247 29.9037 27.1235 29.9027 27.4224 29.9006C27.5316 29.9 27.6409 29.9 27.7502 29.9006C28.6197 29.9045 29.2297 29.7716 29.8751 29.1738C30.3222 28.6751 30.4776 28.1771 30.4799 27.5197C30.4804 27.4427 30.4804 27.4427 30.4808 27.3641C30.4816 27.1921 30.4819 27.02 30.4822 26.848C30.4827 26.7246 30.4832 26.6013 30.4837 26.4779C30.4853 26.0727 30.4861 25.6675 30.4869 25.2623C30.4872 25.1226 30.4875 24.983 30.4878 24.8433C30.4893 24.1869 30.4903 23.5306 30.491 22.8742C30.4917 22.1175 30.4937 21.3609 30.4968 20.6042C30.4991 20.0187 30.5002 19.4333 30.5005 18.8478C30.5007 18.4984 30.5013 18.149 30.5033 17.7997C30.505 17.4707 30.5054 17.1417 30.5046 16.8127C30.5045 16.6924 30.505 16.5721 30.5061 16.4518C30.5135 15.554 30.4224 14.8273 29.7885 14.1495C29.3889 13.8103 28.858 13.5497 28.3291 13.5484C28.2654 13.548 28.2018 13.5477 28.1362 13.5473C28.0662 13.5474 27.9963 13.5474 27.9242 13.5474C27.8499 13.5471 27.7756 13.5468 27.699 13.5465C27.4489 13.5457 27.1987 13.5454 26.9486 13.5451C26.7697 13.5446 26.5908 13.5441 26.4119 13.5436C25.8741 13.5421 25.3363 13.5413 24.7985 13.5407C24.5451 13.5403 24.2918 13.5399 24.0384 13.5395C23.1958 13.5382 22.3532 13.5371 21.5106 13.5366C21.2919 13.5364 21.0733 13.5363 20.8546 13.5361C20.8003 13.5361 20.7459 13.536 20.6899 13.536C19.8102 13.5354 18.9306 13.5334 18.0509 13.531C17.1472 13.5285 16.2436 13.5271 15.34 13.5268C14.8328 13.5267 14.3257 13.526 13.8185 13.5241C13.3412 13.5223 12.8638 13.522 12.3865 13.5227C12.2115 13.5228 12.0366 13.5223 11.8616 13.5213C11.6222 13.5199 11.3828 13.5204 11.1434 13.5215C11.0747 13.5206 11.0059 13.5198 10.9351 13.5189C10.1605 13.5267 9.50273 13.8111 8.98825 14.3965ZM3.88474 18.6621C3.88474 20.6731 3.88474 22.684 3.88474 24.7559C4.58857 24.7559 5.29239 24.7559 6.01755 24.7559C6.01755 22.7449 6.01755 20.734 6.01755 18.6621C5.31372 18.6621 4.60989 18.6621 3.88474 18.6621ZM32.9824 18.6621C32.9824 20.6731 32.9824 22.684 32.9824 24.7559C33.6862 24.7559 34.3901 24.7559 35.1152 24.7559C35.1152 22.7449 35.1152 20.734 35.1152 18.6621C34.4114 18.6621 33.7076 18.6621 32.9824 18.6621Z" fill="#0F61D8"/>
<path d="M15.2344 23.0039C15.5793 23.1586 15.8924 23.3705 16.2115 23.5716C16.6255 23.8308 17.0532 24.0034 17.5195 24.1464C17.5967 24.1706 17.6739 24.1948 17.7534 24.2196C19.4303 24.6601 21.2477 24.4039 22.7754 23.6132C22.9445 23.5035 23.1127 23.3924 23.28 23.28C23.7497 22.9806 24.1305 22.8917 24.6797 23.0039C24.9872 23.1549 25.1862 23.3212 25.3652 23.6132C25.5026 24.0255 25.5147 24.4442 25.3319 24.8415C23.9816 26.3565 21.7085 26.9155 19.741 27.0564C17.9244 27.09 15.5712 26.5612 14.168 25.3652C13.5486 24.7402 13.5486 24.7402 13.5396 24.2417C13.544 23.8993 13.5884 23.6725 13.7871 23.3847C14.2433 22.973 14.6274 22.8917 15.2344 23.0039Z" fill="#0F61D8"/>
<path d="M24.6797 17.5956C25.0517 17.7684 25.2686 17.9853 25.4414 18.3574C25.4988 18.7839 25.5003 19.1446 25.3176 19.538C25.0452 19.8248 24.8104 19.9962 24.4274 20.1046C23.9468 20.1127 23.5971 20.0025 23.2372 19.6808C23.013 19.314 22.8919 18.9885 22.9539 18.5552C23.0734 18.1279 23.2495 17.9195 23.6133 17.6718C23.9321 17.5124 24.3324 17.5634 24.6797 17.5956Z" fill="#0F62D8"/>
<path d="M15.2344 17.5957C15.6085 17.7694 15.804 17.9946 15.9961 18.3574C16.1233 18.8067 16.0532 19.1673 15.8438 19.5761C15.5644 19.8888 15.2882 20.0309 14.8818 20.1022C14.5095 20.1169 14.1704 20.0198 13.8907 19.7687C13.5519 19.3725 13.532 19.0918 13.5375 18.5847C13.5754 18.1768 13.7682 17.9908 14.0537 17.7195C14.4472 17.5368 14.8078 17.5383 15.2344 17.5957Z" fill="#0F61D8"/>
</svg>
