<svg width="54" height="54" viewBox="0 0 54 54" fill="none" xmlns="http://www.w3.org/2000/svg">
<path d="M25.8313 20.8434C25.8313 17.35 22.9994 14.5181 19.506 14.5181C16.0127 14.5181 13.1807 17.35 13.1807 20.8434C13.1807 24.3367 16.0127 27.1687 19.506 27.1687V29.8795C14.5155 29.8795 10.4699 25.8339 10.4699 20.8434C10.4699 15.8528 14.5155 11.8072 19.506 11.8072C24.4965 11.8072 28.5422 15.8528 28.5422 20.8434C28.5422 25.8339 24.4965 29.8795 19.506 29.8795V27.1687C22.9994 27.1687 25.8313 24.3367 25.8313 20.8434Z" fill="#1062D8"/>
<path d="M30.8012 41.6265C30.8012 35.3884 25.7442 30.3313 19.506 30.3313C13.2679 30.3313 8.21084 35.3884 8.21084 41.6265C8.21084 42.3751 7.604 42.9819 6.85542 42.9819C6.10684 42.9819 5.5 42.3751 5.5 41.6265C5.5 33.8912 11.7707 27.6205 19.506 27.6205C27.2413 27.6205 33.512 33.8912 33.512 41.6265C33.512 42.3751 32.9052 42.9819 32.1566 42.9819C31.408 42.9819 30.8012 42.3751 30.8012 41.6265Z" fill="#1062D8"/>
<path d="M30.1941 10C34.7569 10 38.4555 14.0456 38.4555 19.0361C38.4555 22.2486 36.9216 25.0669 34.6125 26.6692C39.5077 28.6374 43 33.7824 43 39.8193C43 40.5679 42.4446 41.1747 41.7602 41.1747C41.076 41.1744 40.5212 40.5676 40.5212 39.8193C40.5212 33.5811 35.8976 28.5241 30.1941 28.5241C29.3681 28.5239 28.5422 28.0719 28.5422 26.9878C28.5423 25.9037 29.3681 25.3616 30.1941 25.3614C33.388 25.3614 35.9776 22.5295 35.9776 19.0361C35.9776 15.5428 33.388 12.7108 30.1941 12.7108C29.6432 12.7107 28.5422 12.4395 28.5422 11.3554C28.5422 10.2713 29.6432 10.0001 30.1941 10Z" fill="#1062D8"/>
</svg>
