<svg width="54" height="54" viewBox="0 0 54 54" fill="none" xmlns="http://www.w3.org/2000/svg">
<path d="M27.4582 33.1337C27.1275 33.1337 26.8042 33.2301 26.5292 33.4108C26.2543 33.5915 26.04 33.8483 25.9134 34.1488C25.7869 34.4492 25.7538 34.7799 25.8183 35.0988C25.8828 35.4178 26.042 35.7108 26.2759 35.9408C26.5097 36.1707 26.8076 36.3273 27.132 36.3908C27.4563 36.4542 27.7925 36.4217 28.098 36.2972C28.4035 36.1728 28.6647 35.962 28.8484 35.6916C29.0321 35.4212 29.1302 35.1033 29.1302 34.778C29.1302 34.3419 28.954 33.9237 28.6404 33.6153C28.3269 33.3069 27.9016 33.1337 27.4582 33.1337ZM45.2985 35.5509L31.8388 12.53C31.4038 11.763 30.7684 11.1241 29.9983 10.6793C29.2282 10.2345 28.3513 10 27.4582 10C26.5651 10 25.6882 10.2345 24.9181 10.6793C24.1479 11.1241 23.5125 11.763 23.0775 12.53L9.70144 35.5509C9.25133 36.2974 9.00947 37.1476 9.00027 38.0155C8.99108 38.8833 9.21488 39.7382 9.64908 40.4939C10.0833 41.2495 10.7125 41.8791 11.4732 42.319C12.234 42.759 13.0993 42.9938 13.9818 42.9998H40.9345C41.8241 43.0084 42.7001 42.7842 43.4725 42.3501C44.2449 41.916 44.8861 41.2878 45.3302 40.5297C45.7744 39.7716 46.0055 38.9109 45.9999 38.036C45.9943 37.1611 45.7522 36.3034 45.2985 35.5509ZM42.4059 38.8396C42.2594 39.096 42.0455 39.3091 41.7867 39.4566C41.5279 39.6041 41.2337 39.6806 40.9345 39.6782H13.9818C13.6827 39.6806 13.3884 39.6041 13.1296 39.4566C12.8708 39.3091 12.657 39.096 12.5104 38.8396C12.3637 38.5896 12.2864 38.306 12.2864 38.0174C12.2864 37.7287 12.3637 37.4452 12.5104 37.1952L25.8865 14.1744C26.0268 13.905 26.24 13.679 26.5025 13.5212C26.7651 13.3633 27.0668 13.2798 27.3746 13.2798C27.6823 13.2798 27.984 13.3633 28.2466 13.5212C28.5092 13.679 28.7223 13.905 28.8626 14.1744L42.3223 37.1952C42.4882 37.4416 42.5835 37.7274 42.5982 38.0225C42.6129 38.3177 42.5465 38.6113 42.4059 38.8724V38.8396ZM27.4582 19.9789C27.0147 19.9789 26.5894 20.1522 26.2759 20.4605C25.9623 20.7689 25.7862 21.1872 25.7862 21.6233V28.2007C25.7862 28.6368 25.9623 29.055 26.2759 29.3634C26.5894 29.6718 27.0147 29.845 27.4582 29.845C27.9016 29.845 28.3269 29.6718 28.6404 29.3634C28.954 29.055 29.1302 28.6368 29.1302 28.2007V21.6233C29.1302 21.1872 28.954 20.7689 28.6404 20.4605C28.3269 20.1522 27.9016 19.9789 27.4582 19.9789Z" fill="#1062D8"/>
</svg>
