<svg width="50" height="50" viewBox="0 0 50 50" fill="none" xmlns="http://www.w3.org/2000/svg">
<circle cx="25" cy="25" r="24.5" fill="#E7F0FD" stroke="#D0DDF7"/>
<mask id="mask0_60_914" style="mask-type:alpha" maskUnits="userSpaceOnUse" x="0" y="0" width="50" height="50">
<circle cx="25" cy="25" r="24.5" fill="#E7F0FD" stroke="#D0DDF7"/>
</mask>
<g mask="url(#mask0_60_914)">
<rect x="8" y="32" width="34" height="25" rx="12.5" fill="#0E336C"/>
</g>
<path d="M20 29C20 27.3431 21.3431 26 23 26H27C28.6569 26 30 27.3431 30 29V33.1459C30 34.2822 29.358 35.321 28.3416 35.8292L26.3416 36.8292C25.4971 37.2515 24.5029 37.2515 23.6584 36.8292L21.6584 35.8292C20.642 35.321 20 34.2822 20 33.1459V29Z" fill="white"/>
<path d="M25 12C29.883 12 34 16.3853 34 22C34 27.6147 29.883 32 25 32C20.117 32 16 27.6147 16 22C16 16.3853 20.117 12 25 12Z" fill="white" stroke="#0E336C" stroke-width="2"/>
<path d="M17.8493 23.0498L16.3636 23.134C16.3636 19.4673 17.6807 12 24.767 12C31.8532 12 33.481 19.3333 33.6364 23H32.2036C31.6791 23 31.2518 22.5929 31.1506 22.0782C30.7419 20.0009 29.2896 17.5 24.767 17.5C20.2097 17.5 19.1251 20.0393 18.8196 22.1258C18.7467 22.6234 18.3514 23.0213 17.8493 23.0498Z" fill="#0E336C"/>
</svg>
